<?xml version="1.0" standalone="no"?>
<!DOCTYPE svg PUBLIC "-//W3C//DTD SVG 20010904//EN"
 "http://www.w3.org/TR/2001/REC-SVG-20010904/DTD/svg10.dtd">
<svg version="1.0" xmlns="http://www.w3.org/2000/svg"
 width="900.000000pt" height="945.000000pt" viewBox="0 0 900.000000 945.000000"
 preserveAspectRatio="xMidYMid meet">
<metadata>
Created by potrace 1.10, written by Peter Selinger 2001-2011
</metadata>
<g transform="translate(0.000000,945.000000) scale(0.100000,-0.100000)"
fill="#000000" stroke="none">
<path d="M3980 9435 c0 -8 -12 -17 -27 -20 -137 -27 -392 -137 -538 -233 -120
-79 -272 -199 -345 -273 -46 -47 -160 -179 -202 -237 -43 -58 -178 -276 -178
-288 0 -2 -13 -32 -28 -66 -16 -35 -35 -76 -42 -93 -21 -50 -80 -239 -80 -256
0 -9 -6 -21 -13 -27 -8 -7 -146 -12 -397 -15 -212 -3 -412 -10 -445 -15 -137
-23 -288 -67 -368 -108 -16 -8 -32 -14 -37 -14 -20 0 -216 -123 -294 -184
-198 -156 -380 -416 -466 -666 -23 -69 -50 -192 -50 -231 0 -22 -5 -49 -11
-60 -5 -11 -12 -68 -15 -127 -3 -59 -9 -145 -14 -192 -6 -47 -15 -137 -20
-200 -6 -63 -13 -135 -15 -160 -3 -25 -10 -90 -15 -145 -5 -55 -14 -145 -20
-200 -5 -55 -12 -130 -14 -167 -2 -37 -7 -72 -11 -78 -4 -6 -13 -89 -21 -183
-8 -95 -19 -212 -23 -262 -5 -49 -14 -155 -20 -235 -7 -80 -17 -167 -23 -195
-6 -27 -13 -77 -15 -110 -1 -33 -8 -105 -14 -160 -6 -55 -13 -125 -15 -155 -2
-30 -9 -93 -15 -140 -5 -47 -14 -139 -20 -205 -11 -148 -25 -282 -39 -400 -6
-49 -18 -164 -26 -255 -8 -91 -19 -203 -24 -250 -4 -47 -13 -152 -19 -235 -7
-82 -18 -181 -26 -220 -25 -128 -35 -396 -35 -896 l0 -496 24 -74 c28 -85 103
-235 144 -288 16 -20 31 -43 34 -51 8 -21 145 -178 187 -215 112 -97 185 -155
197 -155 4 0 15 -6 23 -14 47 -42 294 -151 394 -175 68 -16 6906 -16 6974 0
48 12 103 30 158 54 17 7 50 21 75 31 25 10 64 31 86 46 23 16 44 28 47 28 23
0 231 165 299 236 85 91 156 181 189 243 78 143 97 184 119 249 13 39 30 72
37 72 10 0 13 98 13 480 0 379 -3 479 -12 478 -10 -2 -15 28 -21 107 -5 61
-15 133 -22 160 -7 28 -19 102 -25 165 -6 63 -15 149 -20 190 -4 41 -15 138
-23 215 -9 77 -20 152 -26 166 -5 15 -8 29 -6 31 2 2 -3 58 -11 123 -9 66 -20
154 -25 195 -4 41 -10 93 -13 115 -10 81 -25 213 -40 347 -8 76 -18 143 -22
149 -4 6 -13 73 -21 148 -8 75 -18 170 -23 211 -5 41 -16 131 -24 200 -18 163
-45 372 -56 435 -5 28 -14 102 -21 165 -7 63 -16 144 -20 180 -4 36 -15 129
-23 208 -9 78 -20 151 -26 162 -5 10 -10 40 -10 67 0 48 -22 242 -41 358 -5
33 -14 109 -19 168 -5 60 -13 114 -17 120 -4 7 -14 82 -20 167 -16 196 -26
268 -46 350 -64 250 -170 445 -344 630 -73 78 -268 240 -288 240 -4 0 -21 11
-38 24 -65 48 -263 129 -402 163 -119 29 -186 35 -515 41 -324 7 -335 8 -338
27 -5 38 -59 211 -83 272 -7 15 -18 44 -26 63 -22 53 -85 175 -128 248 -16 26
-96 143 -114 165 -52 64 -171 196 -200 222 -19 16 -63 56 -98 87 -120 107
-361 257 -513 318 -30 12 -68 28 -85 35 -32 14 -122 41 -167 50 -16 3 -28 12
-28 20 0 13 -66 15 -510 15 -444 0 -510 -2 -510 -15z m682 -917 c81 -18 163
-40 183 -49 11 -4 45 -18 75 -30 30 -12 61 -27 68 -32 7 -5 30 -19 51 -31 145
-79 381 -342 381 -425 l0 -21 -930 0 -930 0 0 23 c0 39 99 177 194 273 97 96
198 168 286 204 30 12 69 27 85 34 58 25 130 46 160 47 17 0 39 4 50 9 27 11
274 10 327 -2z m-2182 -1958 c4 -310 9 -424 19 -450 89 -236 242 -350 469
-350 94 0 159 19 263 75 50 28 130 124 167 203 l37 77 5 430 5 430 1045 0
1045 0 5 -425 c5 -378 8 -430 24 -470 82 -206 242 -320 450 -320 80 0 162 17
217 45 97 50 186 143 220 230 9 22 22 56 30 75 10 27 15 134 19 450 l5 415
225 -1 c135 0 255 -5 299 -13 147 -25 281 -118 359 -248 43 -73 51 -111 72
-323 23 -237 40 -374 49 -403 5 -18 15 -84 21 -147 19 -181 28 -263 35 -295 3
-16 10 -73 15 -125 10 -117 38 -338 50 -405 5 -27 14 -99 21 -160 23 -226 27
-262 38 -335 6 -41 13 -100 16 -130 2 -30 9 -75 14 -100 6 -25 16 -94 22 -155
46 -429 57 -520 66 -545 6 -14 11 -46 12 -72 1 -26 7 -82 12 -125 6 -43 15
-114 19 -158 5 -44 15 -134 24 -200 8 -66 22 -181 30 -255 9 -74 20 -155 25
-180 6 -25 15 -94 22 -155 6 -60 15 -144 20 -185 4 -41 13 -122 19 -180 6 -58
15 -123 21 -145 5 -22 17 -103 25 -180 8 -77 20 -176 25 -220 5 -44 12 -102
15 -130 13 -105 -36 -232 -125 -329 -51 -55 -99 -85 -224 -139 -35 -16 -275
-17 -3231 -17 -2922 0 -3196 1 -3240 16 -185 63 -307 192 -346 366 -12 54 -11
99 10 303 5 50 14 158 20 240 6 83 16 165 22 184 5 18 16 108 24 200 27 311
32 366 43 451 6 47 11 113 11 148 0 35 4 71 10 81 5 10 12 61 15 112 3 52 10
130 15 174 6 44 14 132 20 195 5 63 12 135 15 160 3 25 9 90 15 145 5 55 15
165 23 245 8 80 12 150 10 157 -3 6 1 21 7 33 6 11 18 98 26 193 8 95 19 213
23 262 5 50 14 155 20 235 7 80 17 166 22 192 6 25 12 79 15 120 2 40 9 114
15 163 6 50 13 110 15 135 2 25 11 117 19 205 8 88 17 183 19 210 3 28 9 97
15 155 6 58 13 133 16 167 3 34 9 82 14 105 5 24 12 99 16 168 9 182 40 264
133 363 92 96 152 129 282 153 41 8 80 16 85 18 6 3 136 4 290 3 l280 -2 5
-415z"/>
</g>
</svg>
