<?xml version="1.0" standalone="no"?>
<!DOCTYPE svg PUBLIC "-//W3C//DTD SVG 20010904//EN"
 "http://www.w3.org/TR/2001/REC-SVG-20010904/DTD/svg10.dtd">
<svg version="1.0" xmlns="http://www.w3.org/2000/svg"
 width="900.000000pt" height="900.000000pt" viewBox="0 0 900.000000 900.000000"
 preserveAspectRatio="xMidYMid meet">
<metadata>
Created by potrace 1.10, written by Peter Selinger 2001-2011
</metadata>
<g transform="translate(0.000000,900.000000) scale(0.100000,-0.100000)"
fill="#000000" stroke="none">
<path d="M6585 8318 c-27 -5 -77 -13 -110 -17 -96 -14 -279 -64 -299 -83 -6
-4 -16 -8 -24 -8 -21 0 -197 -88 -265 -132 -219 -144 -386 -321 -523 -553 -62
-105 -68 -118 -116 -255 -75 -213 -106 -436 -88 -648 5 -68 10 -127 10 -131 0
-5 -51 -34 -112 -65 -62 -32 -180 -92 -263 -135 -82 -42 -256 -132 -385 -198
-129 -66 -300 -154 -380 -195 -80 -42 -219 -114 -310 -160 -91 -47 -185 -96
-210 -110 -106 -58 -100 -59 -187 19 -43 38 -105 90 -138 115 -68 52 -242 156
-295 177 -164 63 -271 94 -385 112 -33 5 -85 14 -115 19 -73 11 -232 11 -300
-1 -30 -6 -82 -14 -115 -18 -95 -14 -279 -64 -300 -83 -5 -4 -15 -8 -23 -8
-21 0 -197 -88 -265 -132 -163 -107 -299 -235 -419 -393 -52 -69 -157 -243
-177 -295 -66 -170 -111 -332 -111 -396 0 -24 -4 -45 -9 -48 -5 -3 -12 -52
-16 -108 -6 -97 3 -233 25 -368 16 -105 64 -277 81 -295 5 -5 9 -15 9 -23 0
-26 94 -207 148 -287 68 -99 179 -232 242 -288 50 -45 235 -187 243 -187 3 0
38 -19 79 -43 77 -44 92 -51 228 -99 100 -36 172 -55 255 -68 33 -5 87 -14
120 -19 78 -12 235 -12 305 0 30 5 82 14 115 18 89 12 280 65 299 83 6 4 16 8
23 8 20 0 161 69 233 113 89 56 171 118 262 199 42 37 79 68 83 68 10 0 248
-121 695 -353 63 -32 198 -102 300 -155 102 -52 239 -123 305 -157 66 -34 198
-102 292 -150 169 -86 198 -109 175 -138 -16 -20 -24 -235 -12 -332 24 -198
72 -410 101 -439 5 -6 9 -16 9 -24 0 -26 94 -207 148 -287 68 -99 179 -232
242 -288 50 -45 235 -187 243 -187 3 0 38 -19 79 -43 77 -44 92 -51 228 -99
100 -36 172 -55 255 -68 33 -5 87 -14 120 -19 78 -12 235 -12 305 0 30 5 82
14 115 18 89 12 280 65 300 83 5 4 15 8 22 8 20 0 161 69 233 113 161 101 301
223 409 357 78 97 193 280 220 350 65 168 95 272 111 380 4 30 13 84 19 120
13 78 13 224 0 300 -5 30 -13 82 -18 115 -14 93 -65 280 -83 300 -4 5 -8 15
-8 22 0 21 -70 163 -121 246 -103 166 -236 311 -404 439 -67 52 -242 156 -295
177 -164 63 -271 94 -385 112 -33 5 -85 14 -115 19 -73 11 -232 11 -300 -1
-30 -6 -82 -14 -115 -18 -95 -14 -279 -64 -299 -83 -6 -4 -16 -8 -24 -8 -21 0
-197 -88 -265 -132 -80 -53 -222 -166 -266 -212 -19 -20 -40 -36 -47 -36 -6 0
-51 21 -100 47 -82 43 -372 193 -604 311 -220 113 -514 264 -635 327 -180 94
-396 202 -419 209 -14 5 -17 12 -12 34 29 125 33 367 7 434 -6 15 -8 34 -5 42
3 8 67 46 142 84 76 38 146 73 157 79 11 6 34 17 50 25 17 9 55 29 85 46 30
16 177 92 325 168 149 76 329 168 400 205 72 37 198 102 280 144 83 41 187 96
233 120 46 25 88 45 94 45 6 0 38 -26 72 -57 58 -54 248 -203 259 -203 3 0 38
-19 79 -43 77 -44 92 -51 228 -99 100 -36 173 -55 255 -68 33 -5 85 -14 115
-19 72 -12 251 -12 315 0 28 6 77 14 110 18 86 12 233 51 300 80 11 5 44 19
74 31 74 30 150 72 245 135 357 238 615 638 676 1045 4 30 13 84 19 120 13 78
13 224 0 300 -5 30 -13 82 -18 115 -14 93 -65 280 -83 300 -4 5 -8 15 -8 22 0
21 -70 163 -121 246 -103 166 -236 311 -404 439 -67 52 -242 156 -295 177
-164 63 -271 94 -385 112 -33 5 -85 14 -115 19 -70 11 -240 10 -305 -2z m325
-937 c237 -69 405 -238 475 -476 25 -85 23 -248 -3 -335 -52 -172 -142 -293
-282 -384 -127 -82 -214 -108 -355 -109 -231 0 -434 110 -559 303 -80 124
-109 220 -109 360 0 178 62 330 191 463 103 107 260 186 397 200 65 7 183 -4
245 -22z m-4500 -2250 c200 -58 345 -182 435 -369 84 -176 78 -396 -16 -572
-4 -8 -18 -33 -29 -55 -45 -83 -188 -206 -300 -256 -153 -70 -352 -70 -515 -1
-118 49 -228 142 -299 252 -83 129 -109 214 -109 360 -1 178 62 330 191 463
103 107 260 186 397 200 65 7 183 -4 245 -22z m4500 -2250 c237 -69 405 -238
475 -476 24 -84 23 -248 -3 -335 -52 -171 -142 -293 -282 -384 -127 -81 -214
-108 -355 -109 -230 -1 -434 110 -559 303 -80 124 -110 221 -109 360 0 107 21
202 61 276 9 18 26 49 37 70 25 49 138 169 190 202 93 59 216 106 295 114 71
7 187 -3 250 -21z"/>
</g>
</svg>
