<?xml version="1.0" standalone="no"?>
<!DOCTYPE svg PUBLIC "-//W3C//DTD SVG 1.1//EN" "http://www.w3.org/Graphics/SVG/1.1/DTD/svg11.dtd" >
<svg xmlns="http://www.w3.org/2000/svg">
<metadata>Generated by IcoMoon</metadata>
<defs>
<font id="icomoon" horiz-adv-x="1024">
<font-face units-per-em="1024" ascent="960" descent="-64" />
<missing-glyph horiz-adv-x="1024" />
<glyph unicode="&#x20;" horiz-adv-x="512" d="" />
<glyph unicode="&#xe900;" glyph-name="call" d="M805.66 326.713c-17.919 19.902-43.583 32.531-72.204 33.108l-0.102 0.002c-28.924-0.687-54.801-13.177-73.102-32.82l-0.057-0.062-67.584-67.3c-5.689 3.015-11.378 5.689-16.498 8.533-7.68 3.868-14.962 7.452-21.163 11.378-68.179 44.635-126.308 97.716-174.927 158.713l-1.144 1.486c-21.937 26.406-41.201 56.317-56.618 88.424l-1.124 2.598c17.522 16.043 33.792 32.654 49.607 48.697l17.977 18.148c20.725 18.049 33.749 44.482 33.749 73.956s-13.024 55.906-33.631 73.855l-0.118 0.1-58.197 58.311c-6.656 6.599-13.483 13.483-19.911 20.309-12.857 13.255-26.34 26.908-40.22 39.822-18.114 18.98-43.457 30.925-71.592 31.401l-0.088 0.001c-28.633-0.538-54.378-12.472-72.972-31.442l-0.472-0.472-72.647-73.5c-26.044-25.54-43.171-60.090-46.328-98.598l-0.037-0.56c-0.253-5.147-0.398-11.178-0.398-17.243 0-50.927 10.181-99.476 28.618-143.723l-0.914 2.473c40.908-104.835 96.198-195.113 164.612-273.66l-0.943 1.106c91.018-108.805 202.666-197.061 329.342-259.458l5.905-2.629c54.627-28.753 118.429-48.489 186.038-55.342l2.207-0.181c4.494 0 9.216-0.455 13.483-0.455 1.157-0.030 2.52-0.047 3.887-0.047 47.346 0 89.929 20.395 119.443 52.878l0.119 0.133c0 0.398 0.626 0.626 0.853 1.081 12.023 13.844 24.248 26.465 37.12 38.398l0.313 0.287c9.216 8.761 18.603 17.92 27.819 27.534 19.377 18.815 31.615 44.891 32.31 73.827l0.002 0.129c-0.579 28.991-13.119 54.943-32.871 73.211l-0.068 0.062zM882.347 101.604v0c-8.363-8.988-17.067-17.067-26.112-26.055-14.502-13.52-27.989-27.456-40.732-42.057l-0.569-0.666c-18.969-21.035-46.317-34.2-76.74-34.2-1.302 0-2.598 0.024-3.888 0.072l0.186-0.005h-9.842c-61.95 6.533-118.47 24.285-169.381 51.224l2.526-1.219c-124.958 61.455-230.18 144.777-314.738 245.963l-1.223 1.504c-63.434 72.755-115.462 157.539-152.011 250.125l-2.044 5.875c-15.358 35.166-24.295 76.141-24.295 119.203 0 5.095 0.125 10.161 0.372 15.195l-0.028-0.709c1.823 25.014 12.775 47.168 29.501 63.408l0.024 0.023 72.932 72.818c8.252 8.738 19.667 14.411 32.405 15.183l0.136 0.007c12.434-0.723 23.431-6.335 31.197-14.922l0.035-0.039 0.626-0.626c13.028-12.174 25.429-24.804 38.514-38.229 6.656-6.827 13.483-13.653 20.309-20.708l58.084-58.14c10.35-7.481 17.007-19.518 17.007-33.109s-6.657-25.628-16.888-33.027l-0.119-0.082c-6.201-6.201-12.174-12.402-18.375-18.375-17.977-18.375-35.1-35.442-53.703-52.11-0.455-0.455-0.853-0.626-1.081-1.081-8.891-8.001-14.456-19.547-14.456-32.393 0-5.79 1.131-11.315 3.183-16.368l-0.105 0.291 0.626-1.934c18.892-43.037 42.055-80.132 69.73-113.336l-0.61 0.753c53.787-67.488 116.741-124.741 187.603-170.864l3.032-1.85c7.104-4.464 15.732-9.238 24.612-13.575l1.727-0.761c7.68-3.868 14.962-7.452 21.163-11.378 0.853-0.455 1.707-1.081 2.56-1.479 6.134-3.297 13.409-5.266 21.137-5.347h0.025c12.888 0.291 24.413 5.896 32.511 14.702l0.030 0.033 73.102 73.045c8.074 9.027 19.41 14.992 32.14 16.031l0.173 0.011c12.422-0.774 23.337-6.642 30.779-15.52l0.055-0.068 0.455-0.455 117.874-117.703c9.991-7.795 16.355-19.837 16.355-33.365s-6.364-25.57-16.261-33.295l-0.094-0.070zM734.208-64.057c-4.267 0-8.932 0-13.767 0.455-70.566 7.291-135.001 27.335-193.093 57.827l2.913-1.393c-133.39 65.304-245.736 153.966-336.068 261.71l-1.283 1.572c-67.862 77.932-123.478 168.775-162.461 267.978l-2.175 6.284c-17.813 42.424-28.162 91.73-28.162 143.454 0 6.13 0.145 12.226 0.433 18.284l-0.032-0.857c3.293 40.524 21.054 76.366 48.045 102.829l0.026 0.026 73.159 73.956c19.575 19.949 46.642 32.486 76.638 33.051l0.106 0.002c29.782-0.458 56.539-13.038 75.624-33.012l0.039-0.041c14.052-12.971 27.705-26.795 40.334-39.822 6.428-6.827 13.255-13.653 19.854-20.252l58.425-58.539c21.712-19.066 35.342-46.882 35.342-77.881s-13.631-58.815-35.226-77.78l-0.117-0.1-8.818-9.273-9.045-9.102-4.551-4.608c-13.483-13.653-27.42-27.762-42.212-41.472 16.123-32.81 34.559-61.087 55.928-86.843l-0.575 0.714c49.383-61.988 107.060-114.653 171.942-157.244l2.764-1.703c5.528-3.413 12.296-7.091 19.255-10.432l1.396-0.604 5.689-2.844 7.396-3.812 64.683 64.341c19.378 20.723 46.663 33.844 77.018 34.529l0.124 0.002c30.333-0.533 57.46-13.826 76.319-34.723l0.082-0.093 116.964-117.874c20.833-19.353 34.001-46.711 34.587-77.15l0.002-0.106c-0.753-30.605-13.68-58.051-34.102-77.794l-0.032-0.030c-7.964-8.306-17.067-17.067-27.989-27.705l-2.958-2.844c-11.885-11.064-22.921-22.496-33.324-34.492l-0.468-0.551-0.683-0.853-0.512-0.569c-30.637-33.635-74.614-54.66-123.502-54.66-1.382 0-2.759 0.017-4.133 0.050l0.204-0.004zM198.485 889.856c-27.017-0.579-51.287-11.875-68.818-29.792l-0.017-0.018-0.341-0.341-72.761-73.5c-25.183-24.688-41.743-58.089-44.793-95.317l-0.036-0.541c-0.233-4.903-0.366-10.649-0.366-16.426 0-50.345 10.086-98.334 28.347-142.057l-0.902 2.437c40.683-104.219 95.644-193.968 163.643-272.065l-0.941 1.104c90.51-108.32 201.553-196.189 327.558-258.333l5.868-2.616c54.036-28.399 117.129-47.941 183.975-54.826l2.222-0.185c4.551 0 9.102-0.398 13.141-0.398 1.126-0.029 2.452-0.046 3.782-0.046 45.584 0 86.602 19.553 115.123 50.729l0.107 0.119 0.569 0.74 0.398 0.455c11.206 12.992 22.596 24.815 34.6 35.987l0.273 0.251 2.958 2.901c11.036 10.468 19.797 19.172 27.648 27.42 18.387 17.805 30.015 42.494 30.717 69.901l0.003 0.129c-0.571 27.438-12.483 51.985-31.22 69.228l-0.068 0.062-117.532 117.931c-16.893 18.86-41.122 30.851-68.16 31.458l-0.107 0.002c-27.362-0.721-51.821-12.572-69.122-31.172l-0.055-0.060-70.656-70.144-3.698 1.991-10.866 5.689-5.689 2.844c-7.737 3.868-15.132 7.566-21.561 11.378-68.728 44.986-127.326 98.481-176.342 159.955l-1.152 1.495c-22.299 26.81-41.851 57.192-57.464 89.819l-1.132 2.625-1.707 3.698 3.015 2.731c15.758 14.393 30.549 29.355 44.828 43.861l4.608 4.665 18.034 18.148c19.681 17.029 32.059 42.041 32.059 69.945s-12.378 52.916-31.943 69.846l-0.117 0.099-58.084 58.197c-6.656 6.656-13.54 13.483-20.025 20.423-12.459 12.857-25.941 26.567-39.822 39.424-17.119 18.153-41.162 29.616-67.885 30.15l-0.097 0.002zM734.436-6.258h-10.24c-62.72 6.548-119.961 24.488-171.513 51.748l2.553-1.231c-125.575 61.673-231.338 145.281-316.393 246.826l-1.218 1.494c-63.885 73.26-116.295 158.626-153.131 251.845l-2.062 5.918c-15.627 35.723-24.72 77.353-24.72 121.106 0 5.326 0.135 10.621 0.401 15.881l-0.030-0.738c2.018 26.335 13.61 49.631 31.26 66.703l0.029 0.028 72.932 72.875c9.251 9.826 22.068 16.204 36.372 17.059l0.15 0.007c13.988-0.731 26.39-6.971 35.179-16.573l0.035-0.039 0.626-0.626c12.402-11.378 24.405-23.723 38.571-38.286l20.309-20.764 58.368-58.254c11.288-8.516 18.508-21.904 18.508-36.978s-7.22-28.462-18.391-36.893l-0.117-0.085-6.144-6.201c-3.982-4.039-8.135-8.249-12.345-12.231-19.058-19.513-35.556-35.897-53.76-52.167v0l-0.626-0.626c-7.999-7.003-13.023-17.234-13.023-28.639 0-5.354 1.107-10.45 3.105-15.070l-0.095 0.246 0.569-1.65c18.703-42.358 41.574-78.867 68.866-111.557l-0.599 0.738 0.341-0.398c53.154-67.014 115.377-123.881 185.447-169.753l2.969-1.824c6.962-4.372 15.422-9.051 24.129-13.303l1.698-0.749c7.737-3.868 15.076-7.509 21.447-11.378l1.479-0.853 0.796-0.512c5.316-2.985 11.667-4.743 18.429-4.743 11.467 0 21.753 5.056 28.751 13.061l0.038 0.045 73.387 73.159c9.080 10.062 21.83 16.663 36.123 17.683l0.172 0.010c14.057-0.802 26.439-7.363 34.929-17.338l0.058-0.070 117.874-117.703c11.129-8.513 18.236-21.799 18.236-36.744 0-10.779-3.696-20.694-9.891-28.548l0.074 0.098h1.707l-9.557-9.557c-6.884-7.396-13.881-14.222-21.333-21.447l-4.836-4.722c-14.382-13.401-27.756-27.208-40.399-41.67l-0.561-0.655c-19.996-22.322-48.91-36.302-81.088-36.302-1.313 0-2.62 0.023-3.921 0.069l0.189-0.005zM198.94 831.943c-11.279-0.884-21.228-5.95-28.422-13.629l-0.022-0.024-72.59-72.704c-15.82-15.378-26.161-36.32-27.858-59.659l-0.018-0.301c-0.235-4.429-0.369-9.615-0.369-14.832 0-42.109 8.714-82.182 24.438-118.516l-0.745 1.934c38.347-97.75 89.987-181.925 153.804-255.22l-0.887 1.040c85.29-101.873 189.863-184.528 308.491-243.009l5.535-2.467c47.84-25.439 103.726-42.991 162.978-49.265l2-0.172h9.5c1.089-0.043 2.367-0.068 3.651-0.068 28.794 0 54.688 12.416 72.621 32.185l0.073 0.082c13.389 15.346 26.949 29.356 41.194 42.642l0.335 0.309 4.836 4.722c6.713 6.542 13.141 12.743 19.342 19.342v3.47h3.3c8.115 6.686 13.249 16.736 13.249 27.986 0 12.007-5.849 22.649-14.853 29.23l-0.102 0.071-118.386 117.874c-6.522 7.867-16.005 13.083-26.717 13.929l-0.134 0.009c-11.381-1.048-21.347-6.38-28.405-14.348l-0.039-0.045-73.159-73.045c-9.151-9.852-22.081-16.085-36.469-16.383l-0.054-0.001c-0.006 0-0.013 0-0.020 0-8.65 0-16.809 2.103-23.994 5.826l0.291-0.137-1.764 1.024-0.796 0.512h-0.398c-5.689 3.698-13.141 7.282-20.708 11.036-10.806 5.192-19.602 10.061-28.11 15.349l1.258-0.729c-74.084 48.245-137.205 105.774-189.913 171.964l-1.234 1.604-0.626 1.024c-27.341 32.799-50.751 70.287-68.664 110.751l-1.196 3.027v0.341l-0.626 1.934c-2.158 5.334-3.41 11.52-3.41 17.998 0 14.134 5.959 26.876 15.502 35.852l0.025 0.024c0.42 0.535 0.887 1.002 1.405 1.409l0.018 0.013c17.977 16.1 34.133 32.37 53.419 51.883 4.21 4.039 8.306 8.192 12.231 12.174l6.201 6.258c9.314 6.455 15.336 17.088 15.336 29.127s-6.022 22.672-15.219 29.050l-0.117 0.077-58.311 58.539-20.366 20.821c-14.052 14.507-25.941 26.51-38.286 38.059l-0.796 0.796c-6.827 7.536-16.396 12.479-27.12 13.248l-0.13 0.007zM551.083 713.671c115.557-20.595 205.368-110.405 225.714-224.282l0.249-1.68c2.391-13.743 14.204-24.067 28.439-24.121h0.006c1.79 0.049 3.498 0.213 5.17 0.485l-0.221-0.030c13.908 2.369 24.363 14.331 24.363 28.735 0 1.726-0.15 3.417-0.438 5.061l0.025-0.175c-24.883 139.839-133.569 248.524-271.377 273.108l-2.031 0.3c-1.453 0.256-3.125 0.402-4.832 0.402-14.341 0-26.271-10.324-28.763-23.945l-0.027-0.179c-0.308-1.581-0.484-3.399-0.484-5.259 0-14.281 10.4-26.133 24.039-28.396l0.168-0.023zM556.316 777.102v0c2.009-0.001 3.979-0.166 5.898-0.484l-0.209 0.029c142.254-25.276 252.825-135.828 277.825-276.008l0.305-2.065c0.31-1.747 0.487-3.757 0.487-5.81 0-17.172-12.391-31.449-28.719-34.379l-0.212-0.032h-0.74c-1.54-0.234-3.333-0.378-5.155-0.398h-0.022c-0.005 0-0.010 0-0.016 0-17.093 0-31.291 12.399-34.088 28.694l-0.029 0.205c-20.181 113.166-108.132 201.117-219.652 221.054l-1.646 0.244c-9.269 1.524-17.123 6.636-22.23 13.833l-0.071 0.105c-4.021 5.616-6.43 12.624-6.43 20.196 0 19.272 15.607 34.898 34.872 34.93h0.003zM805.66 469.22c1.34 0.039 2.616 0.162 3.866 0.364l-0.168-0.022h0.512c11.065 2.044 19.336 11.618 19.336 23.124 0 1.397-0.122 2.766-0.356 4.096l0.021-0.141c-24.491 137.424-131.311 244.224-266.746 268.391l-1.997 0.295c-0.579 0.049-1.253 0.077-1.934 0.077s-1.355-0.028-2.022-0.083l0.088 0.006c-0.016 0-0.035 0-0.054 0-13.007 0-23.552-10.545-23.552-23.552 0-5.096 1.619-9.814 4.37-13.668l-0.049 0.072c3.468-4.838 8.687-8.231 14.714-9.254l0.134-0.019c117.972-20.987 209.668-112.664 230.431-228.913l0.254-1.715c1.943-11.053 11.47-19.343 22.934-19.343 0.077 0 0.154 0 0.231 0.001h-0.012zM1017.458 503.637c-40.905 230.269-219.853 409.256-446.762 449.725l-3.343 0.494c-1.623 0.321-3.488 0.505-5.397 0.505-16.055 0-29.070-13.015-29.070-29.070 0-14.607 10.774-26.698 24.809-28.76l0.158-0.019c205.708-36.615 365.564-196.568 401.595-399.338l0.439-2.98c2.369-13.755 14.195-24.092 28.441-24.121h0.003c1.791 0.050 3.499 0.214 5.171 0.485l-0.222-0.030c13.893 2.031 24.441 13.864 24.441 28.161 0 1.749-0.158 3.46-0.46 5.122l0.026-0.174zM988.9 464.441c-0.005 0-0.010 0-0.016 0-17.093 0-31.291 12.399-34.088 28.694l-0.029 0.205c-36.099 203.451-194.251 361.583-394.764 397.219l-2.946 0.434c-16.818 2.629-29.533 17.012-29.533 34.364 0 19.197 15.562 34.759 34.759 34.759 0.163 0 0.325-0.001 0.487-0.003h-0.025c0.025 0 0.054 0 0.083 0 2.081 0 4.119-0.186 6.098-0.543l-0.208 0.031c232.728-41.384 413.588-222.34 454.331-451.741l0.496-3.37c0.347-1.828 0.546-3.93 0.546-6.079 0-17.036-12.481-31.157-28.797-33.719l-0.193-0.025h-0.626c-0.851-0.065-1.843-0.103-2.844-0.103s-1.993 0.037-2.975 0.111l0.131-0.008zM562.233 948.622c-12.867-0.061-23.274-10.506-23.274-23.381 0-11.63 8.491-21.277 19.612-23.079l0.134-0.018c208.218-36.92 370.064-198.765 406.539-403.968l0.444-3.015c1.908-11.017 11.35-19.304 22.745-19.399h0.010c1.34 0.039 2.616 0.162 3.866 0.364l-0.168-0.022h0.512c6.166 0.989 11.397 4.372 14.802 9.148l0.046 0.068c2.685 3.688 4.295 8.309 4.295 13.305 0 1.329-0.114 2.631-0.332 3.897l0.019-0.135c-40.448 227.856-217.465 404.989-441.957 445.12l-3.312 0.491c-1.156 0.303-2.516 0.525-3.911 0.622l-0.071 0.004z" />
<glyph unicode="&#xe901;" glyph-name="edit" d="M919.097 291.385v-157.355c0.754-6.144 1.185-13.257 1.185-20.47 0-97.995-79.441-177.436-177.436-177.436-7.213 0-14.326 0.43-21.314 1.267l0.844-0.082h-524.459c-6.075-0.737-13.108-1.158-20.239-1.158-97.995 0-177.436 79.441-177.436 177.436 0 7.204 0.429 14.307 1.264 21.287l-0.082-0.843v524.686c-0.74 6.084-1.162 13.128-1.162 20.27 0 97.995 79.441 177.436 177.436 177.436 7.125 0 14.151-0.42 21.056-1.236l-0.837 0.081h157.355c21.088-0.827 37.871-18.123 37.871-39.339s-16.782-38.512-37.796-39.336l-0.075-0.002h-157.355c-82.716 0-118.044-35.328-118.044-118.044v-524.516c0-82.716 35.328-118.044 118.044-118.044h524.516c82.716 0 118.044 35.328 118.044 118.044v157.355c-0.018 0.446-0.028 0.97-0.028 1.496 0 21.742 17.625 39.367 39.367 39.367s39.367-17.625 39.367-39.367c0-0.526-0.010-1.050-0.031-1.571l0.002 0.075zM1024 760.491c-0.022-31.881-13.074-60.71-34.119-81.451l-0.014-0.014-470.13-467.968c-7.117-7.033-16.905-11.378-27.707-11.378-0.039 0-0.079 0-0.118 0h-188.979c-21.742 0-39.367 17.625-39.367 39.367v0 189.212c0 0.058 0 0.127 0 0.195 0 10.758 4.347 20.501 11.38 27.568l-0.002-0.002 468.025 470.073c20.801 20.882 49.581 33.804 81.38 33.804s60.578-12.922 81.376-33.8l0.004-0.004 84.537-84.082c20.838-20.708 33.736-49.385 33.736-81.075 0-0.117 0-0.234-0.001-0.351v0.018zM807.253 608.028l-135.339 135.339-329.956-331.321v-133.746h133.746zM945.38 760.604c0.002 0.14 0.003 0.305 0.003 0.471 0 9.979-4.021 19.018-10.53 25.587l0.003-0.003-84.423 84.196c-6.637 6.479-15.723 10.477-25.742 10.477s-19.105-3.997-25.75-10.484l0.007 0.007-71.225-71.68 135.452-135.623 71.623 71.282c6.505 6.566 10.525 15.604 10.525 25.582 0 0.066 0 0.133-0.001 0.199v-0.010z" />
<glyph unicode="&#xe902;" glyph-name="facebook" horiz-adv-x="544" d="M360.7 385.967c0-18.632-0.259-37.306-0.259-55.938q0-187.396 0-374.836c0-9.51-2.291-12.969-12.363-13.487-14.698-0.692-29.309-3.674-43.92-5.663h-91.991c-7.954 4.323-17.032 0.821-25.505 3.631-3.6 1.332-7.757 2.103-12.095 2.103-0.794 0-1.582-0.026-2.363-0.077l0.106 0.006c-10.505-1.21-10.721 4.063-10.721 12.018 0 141.271 0 282.542 0.346 423.641 0 8.646-1.686 11.11-10.764 10.98-47.292-0.519-94.627 0-141.92-0.432-7.349 0-9.424 1.599-9.381 9.208q0.562 83.475 0 166.906c0 6.657 1.859 8.127 8.257 8.127 47.984-0.259 95.968 0 143.908-0.346 7.954 0 9.899 2.075 9.813 9.899-0.389 43.661 0.821 87.322-0.476 130.94-0.122 3.083-0.192 6.703-0.192 10.339 0 38.555 7.826 75.283 21.975 108.681l-0.688-1.828c16.215 39.468 43.506 71.634 77.992 93.455l0.813 0.481c20.989 12.996 45.373 23.127 71.36 29.044l1.61 0.308c14.233 1.951 26.435 4.355 38.389 7.384l-2.38-0.511h61.99c1.989-2.507 4.020-3.199 6.009 0h9.986c4.285-2.529 9.442-4.022 14.948-4.022 0.125 0 0.25 0.001 0.374 0.002h-0.019c25.937-0.259 51.226-6.095 76.947-7.868 4.063-0.303 3.804-2.723 3.804-5.447 0-48.675 0-97.308 0-145.983 0-6.398-3.502-5.793-7.608-5.836-29.957-0.216-60.045 0.951-89.872-1.21-0.423 0.008-0.921 0.012-1.421 0.012-42.664 0-77.887-31.858-83.177-73.083l-0.044-0.418c-1.508-13.026-2.368-28.119-2.368-43.412 0-7.386 0.201-14.726 0.597-22.013l-0.044 1.015c-0.519-23.3 0.303-46.687-0.346-69.987-0.216-8.3 2.637-9.597 10.029-9.554 52.307 0.303 104.657 0 156.963 0 5.793 0 9.683 1.729 7.695-8.646-5.62-28.315-8.646-57.148-12.623-85.766-3.847-26.413-7.954-52.782-12.018-79.152-1.124-7.262-3.847-11.023-12.969-10.85-41.672 0.735-83.302 0.346-124.974 0.303-3.329 0-6.657-0.259-9.943-0.389-1.599 0.303-1.989-0.476-1.599-1.859z" />
<glyph unicode="&#xe903;" glyph-name="youtube" horiz-adv-x="1468" d="M0 374.088v151.91c0.947 10.815 1.794 21.63 2.841 32.495 6.728 69.775 12.31 139.55 20.584 209.325 4.981 49.861 28.47 93.448 63.397 124.426l0.198 0.173c35.171 29.336 80.51 47.56 130.066 48.788l0.264 0.005c93.299 6.728 186.599 14.952 280.048 16.646 157.492 2.741 315.085 3.14 472.577 0 100.526-2.093 201.152-9.968 301.229-19.936 87.703-4.878 158.47-71.432 169.851-156.765l0.101-0.927c6.905-33.874 12.884-76.023 16.587-118.824l0.309-4.429c6.044-59.696 9.492-129.011 9.492-199.13 0-44.704-1.401-89.080-4.162-133.088l0.302 6.020c-4.984-71.27-11.264-142.79-22.926-213.213-9.868-83.125-75.967-148.132-158.756-156.239l-0.73-0.058c-47.46-8-103.894-13.717-161.238-15.874l-2.484-0.074c-138.354-4.984-276.758-8.921-415.162-9.121-21.142-0.391-46.078-0.613-71.066-0.613-152.737 0-303.532 8.315-451.957 24.517l18.35-1.626c-84.945 5.141-153.907 67.584-168.981 148.939l-0.173 1.127c-11.712 57.714-16.048 117.073-22.577 175.784-3.289 29.904-4.087 59.807-5.981 89.711zM588.105 668.091v-439.085l380.225 219.542-380.225 219.293z" />
<glyph unicode="&#xe904;" glyph-name="back-arrow" horiz-adv-x="1045" d="M664.448 192.555l-260.267 253.355 260.267 255.061c35.712 34.005-22.101 91.733-57.813 57.813l-295.872-289.067c-6.033-6.152-9.757-14.587-9.757-23.893 0-8.413 3.044-16.116 8.091-22.066l-0.041 0.049 297.579-289.067c35.648-34.005 93.525 23.787 57.813 57.92z" />
<glyph unicode="&#xe905;" glyph-name="uniE905" d="M512 959.953c-139.078 0-156.486-0.605-211.084-3.072-44.874-0.922-87.456-9.567-126.852-24.651l2.575 0.866c-68.976-27.183-122.554-80.76-149.119-147.964l-0.618-1.773c-14.216-36.82-22.86-79.403-23.778-123.883l-0.006-0.393c-2.467-54.598-3.072-72.052-3.072-211.084s0.605-156.486 3.072-211.084c0.925-44.874 9.569-87.456 24.651-126.853l-0.867 2.576c27.188-68.973 80.763-122.549 147.963-149.119l1.773-0.618c36.82-14.217 79.403-22.862 123.884-23.778l0.392-0.006c54.598-2.513 72.052-3.072 211.084-3.072s156.486 0.605 211.084 3.072c44.874 0.923 87.456 9.567 126.852 24.651l-2.576-0.867c68.973 27.188 122.549 80.763 149.119 147.963l0.618 1.773c14.221 36.821 22.865 79.404 23.778 123.886l0.006 0.39c2.467 54.598 3.072 72.052 3.072 211.084s-0.605 156.486-3.072 211.084c-0.919 44.873-9.564 87.456-24.651 126.851l0.866-2.574c-27.188 68.973-80.763 122.549-147.963 149.119l-1.773 0.618c-36.82 14.219-79.403 22.863-123.885 23.778l-0.392 0.006c-54.598 2.513-72.052 3.072-211.084 3.072zM512 867.7c136.704 0 152.902-0.512 206.895-2.979 34.237-0.426 66.844-6.859 96.993-18.289l-1.948 0.648c44.789-17.612 79.575-52.398 96.787-96.037l0.4-1.15c10.787-28.216 17.22-60.84 17.639-94.913l0.002-0.18c2.467-53.993 2.979-70.191 2.979-206.895s-0.512-152.902-2.979-206.895c-0.419-34.252-6.853-66.877-18.289-97.040l0.648 1.948c-17.607-44.792-52.395-79.58-96.037-96.787l-1.15-0.399c-28.201-10.783-60.809-17.215-94.864-17.639l-0.182-0.002c-53.993-2.467-70.191-2.979-206.895-2.979s-152.902 0.512-206.895 2.979c-34.253 0.423-66.877 6.856-97.041 18.289l1.949-0.648c-44.789 17.612-79.575 52.398-96.787 96.037l-0.4 1.15c-10.784 28.216-17.217 60.84-17.639 94.911l-0.002 0.181c-2.467 53.993-2.979 70.191-2.979 206.895s0.512 152.902 2.979 206.895c0.424 34.253 6.857 66.877 18.289 97.042l-0.648-1.949c17.612 44.789 52.398 79.575 96.037 96.787l1.15 0.4c28.216 10.783 60.84 17.216 94.911 17.639l0.181 0.002c53.993 2.467 70.191 2.979 206.895 2.979z" />
<glyph unicode="&#xe906;" glyph-name="uniE906" d="M512.047 266.705c-100.126 0-181.295 81.168-181.295 181.295s81.168 181.295 181.295 181.295c100.126 0 181.295-81.168 181.295-181.295v0c0-100.126-81.168-181.295-181.295-181.295v0zM512.047 727.273c-154.238 0-279.273-125.035-279.273-279.273s125.035-279.273 279.273-279.273c154.238 0 279.273 125.035 279.273 279.273v0c0 154.238-125.035 279.273-279.273 279.273v0z" />
<glyph unicode="&#xe907;" glyph-name="search" d="M993.792 63.488l-274.213 274.139c48.318 64.663 77.364 146.179 77.364 234.48 0 217.612-176.409 394.021-394.021 394.021s-394.021-176.409-394.021-394.021c0-217.612 176.409-394.021 394.021-394.021 89.054 0 171.208 29.544 237.196 79.365l-0.996-0.721 274.139-274.139c10.551-12.59 26.283-20.539 43.871-20.539 31.549 0 57.125 25.576 57.125 57.125 0 17.588-7.949 33.32-20.45 43.799l-0.089 0.072zM179.2 347.794c-57.506 57.511-93.074 136.959-93.074 224.714 0 175.519 142.286 317.806 317.806 317.806s317.806-142.286 317.806-317.806c0-87.755-35.568-167.203-93.075-224.714v0c-57.553-57.429-136.995-92.941-224.731-92.941s-167.179 35.512-224.737 92.947l0.006-0.006z" />
<glyph unicode="&#xe908;" glyph-name="user" horiz-adv-x="866" d="M78.785-24.633c0 195.76 158.695 354.456 354.456 354.456s354.456-158.695 354.456-354.456v0c0-21.756 17.637-39.392 39.392-39.392s39.392 17.637 39.392 39.392v0c0 239.272-193.968 433.24-433.24 433.24s-433.24-193.968-433.24-433.24v0c0-21.756 17.637-39.392 39.392-39.392s39.392 17.637 39.392 39.392v0zM433.24 960c-137.834-0.287-249.46-112.089-249.46-249.963 0-138.051 111.913-249.964 249.964-249.964s249.963 111.912 249.964 249.963v0c-0.23 138.101-112.235 249.964-250.367 249.964-0.036 0-0.071 0-0.107 0h0.006zM433.24 881.215c94.521-0.172 171.078-76.836 171.078-171.38 0-94.651-76.73-171.381-171.381-171.381s-171.381 76.73-171.381 171.38v0c0 0 0 0 0 0 0 94.651 76.73 171.381 171.381 171.381 0.106 0 0.213 0 0.319 0h-0.016z" />
<glyph unicode="&#xe909;" glyph-name="cart" horiz-adv-x="1031" d="M829.752 162.080c-62.43 0-113.040-50.61-113.040-113.040s50.61-113.040 113.040-113.040c62.43 0 113.040 50.61 113.040 113.040v0c-0.075 62.4-50.64 112.965-113.033 113.040h-0.007zM829.752 0.412c-26.856 0-48.628 21.771-48.628 48.628s21.771 48.628 48.628 48.628c26.856 0 48.628-21.771 48.628-48.628v0c-0.025-26.846-21.781-48.603-48.625-48.628h-0.002zM409.864 162.080c-62.43 0-113.040-50.61-113.040-113.040s50.61-113.040 113.040-113.040c62.43 0 113.040 50.61 113.040 113.040v0c-0.075 62.4-50.64 112.965-113.033 113.040h-0.007zM409.864 0.412c-26.856 0-48.628 21.771-48.628 48.628s21.771 48.628 48.628 48.628c26.856 0 48.628-21.771 48.628-48.628v0c-0.025-26.846-21.781-48.603-48.625-48.628h-0.002zM1023.78 771.776c-5.945 7.551-15.087 12.355-25.35 12.355-0.038 0-0.075 0-0.113 0h-786.922l-155.732 165.757c-5.956 7.287-14.944 11.901-25.009 11.901-17.799 0-32.228-14.429-32.228-32.228 0-9.331 3.966-17.736 10.304-23.622l0.020-0.019 158.942-169.142 116.777-506.372c3.414-14.412 16.17-24.969 31.392-24.973h583.579c0.355-0.014 0.772-0.022 1.19-0.022 17.799 0 32.228 14.429 32.228 32.228s-14.429 32.228-32.228 32.228c-0.419 0-0.835-0.008-1.25-0.024l0.060 0.002h-557.99l-13.19 57.817h567.179c14.892 0 27.424 10.101 31.121 23.825l0.052 0.225 102.928 392.233c0.666 2.445 1.049 5.252 1.049 8.148 0 7.446-2.529 14.302-6.774 19.755l0.054-0.072zM870.554 392.074h-557.242l-75.624 327.865h718.866z" />
<glyph unicode="&#xe90a;" glyph-name="requisition" horiz-adv-x="1536" d="M1175.781-3.469v165.326h-172.796c-0.612-0.022-1.331-0.035-2.053-0.035-33.353 0-60.391 27.038-60.391 60.391s27.038 60.391 60.391 60.391c0.722 0 1.441-0.013 2.157-0.038l-0.104 0.003h172.796v165.465c3.123 32.062 29.937 56.917 62.556 56.917s59.433-24.855 62.535-56.66l0.020-0.258v-165.256h172.656c0.612 0.022 1.331 0.035 2.053 0.035 33.353 0 60.391-27.038 60.391-60.391s-27.038-60.391-60.391-60.391c-0.722 0-1.441 0.013-2.157 0.038l0.104-0.003h-172.587v-165.535c-3.123-32.062-29.937-56.917-62.556-56.917s-59.433 24.855-62.535 56.66l-0.020 0.258zM62.835 86.804c-1.505-0.139-3.254-0.218-5.021-0.218-31.965 0-57.878 25.913-57.878 57.878 0 0.961 0.023 1.916 0.070 2.865l-0.005-0.134c-0.025 0.633-0.039 1.377-0.039 2.124 0 32.274 26.163 58.436 58.436 58.436 1.562 0 3.109-0.061 4.639-0.181l-0.202 0.013h548.619c0.612 0.022 1.331 0.035 2.053 0.035 33.353 0 60.391-27.038 60.391-60.391s-27.038-60.391-60.391-60.391c-0.722 0-1.441 0.013-2.157 0.038l0.104-0.003zM62.835 462.976c-1.484-0.135-3.21-0.212-4.955-0.212-32.004 0-57.948 25.944-57.948 57.948 0 0.983 0.024 1.961 0.073 2.932l-0.005-0.137c-0.025 0.638-0.039 1.388-0.039 2.141 0 32.158 26.069 58.227 58.227 58.227 1.636 0 3.256-0.067 4.857-0.2l-0.21 0.014h861.676c1.524 0.143 3.295 0.224 5.085 0.224 31.927 0 57.808-25.882 57.808-57.808 0-0.914-0.021-1.823-0.063-2.726l0.005 0.128c0.038-0.789 0.060-1.713 0.060-2.643 0-32.081-26.007-58.087-58.087-58.087-1.692 0-3.368 0.072-5.023 0.214l0.216-0.015zM62.835 839.427c-1.524-0.143-3.295-0.224-5.085-0.224-31.927 0-57.808 25.882-57.808 57.808 0 0.914 0.021 1.823 0.063 2.726l-0.005-0.128c-0.026 0.656-0.041 1.426-0.041 2.199 0 32.235 26.132 58.367 58.367 58.367 1.587 0 3.16-0.063 4.715-0.188l-0.205 0.013h861.676c1.549 0.148 3.349 0.232 5.169 0.232 31.888 0 57.738-25.85 57.738-57.738 0-1.015-0.026-2.023-0.078-3.025l0.006 0.14c0.033-0.73 0.052-1.585 0.052-2.445 0-32.004-25.944-57.948-57.948-57.948-1.739 0-3.459 0.077-5.159 0.226l0.22-0.016z" />
<glyph unicode="&#xe90b;" glyph-name="compare" d="M749.466-60.672c-6.046 2.596-11.167 6.289-15.328 10.87l-0.032 0.036c-4.696 4.088-8.355 9.245-10.612 15.099l-0.088 0.261c-2.021 4.876-3.195 10.54-3.195 16.477 0 0.886 0.026 1.766 0.078 2.638l-0.006-0.12c0.018 13.632 6.221 25.813 15.953 33.887l0.073 0.059 125.952 126.054h-815.104c-12.891 0.251-24.499 5.543-32.975 13.979l0.002-0.002c-8.557 8.499-13.854 20.271-13.854 33.28s5.297 24.781 13.852 33.277l0.003 0.003c8.481 8.406 20.093 13.665 32.933 13.875l0.040 0.001h814.899l-125.952 126.157c-6.324 6.347-10.964 14.377-13.188 23.36l-0.072 0.346c-0.431 2.573-0.677 5.539-0.677 8.561 0 6.741 1.224 13.196 3.463 19.155l-0.124-0.376c3.825 8.632 9.667 15.772 16.951 21.043l0.15 0.103c7.208 5 16.141 7.988 25.772 7.988 0.102 0 0.203 0 0.304-0.001h2.749l4.147-0.614c10.613-1.737 19.873-6.591 27.044-13.579l206.018-206.171c8.565-8.375 13.876-20.047 13.876-32.959 0-0.113 0-0.226-0.001-0.338v0.017c-0.071-12.969-5.361-24.688-13.874-33.176l-206.337-206.133c-4.317-4.669-9.397-8.556-15.056-11.48l-0.304-0.143c-5.322-2.454-11.499-4.162-17.991-4.794l-0.237-0.019c-0.322-0.007-0.701-0.012-1.081-0.012-6.536 0-12.781 1.245-18.512 3.51l0.341-0.119zM220.16 466.842l-206.285 206.029c-4.107 4.377-7.541 9.449-10.096 15.010l-0.144 0.35c-2.212 5.39-3.538 11.64-3.635 18.188v0.039c0.088 6.524 1.454 12.706 3.857 18.338l-0.12-0.316c2.509 5.973 5.967 11.074 10.241 15.361l-0.001-0.001 206.182 205.773c6.419 6.982 14.992 11.894 24.661 13.68l0.274 0.042 3.738 0.666h5.12c0.113 0.001 0.246 0.002 0.38 0.002 9.615 0 18.523-3.029 25.821-8.185l-0.141 0.094c7.716-5.081 13.646-12.315 16.997-20.846l0.104-0.3c2.239-5.29 3.54-11.44 3.54-17.895 0-3.381-0.357-6.678-1.035-9.856l0.055 0.308c-2.13-9.663-6.92-17.984-13.555-24.41l-0.013-0.012-125.030-125.235h814.592c0.285 0.050 0.613 0.079 0.947 0.079s0.662-0.029 0.981-0.084l-0.034 0.005c0.020 0 0.044 0 0.068 0 5.932 0 11.56-1.302 16.613-3.635l-0.246 0.102c6.166-2.073 11.423-5.448 15.657-9.82l0.010-0.010c4.655-4.267 8.293-9.567 10.557-15.542l0.093-0.278c2.34-4.916 3.706-10.682 3.706-16.767 0-0.441-0.007-0.881-0.021-1.319l0.002 0.064c0.003-0.185 0.004-0.404 0.004-0.623 0-6.392-1.378-12.462-3.853-17.929l0.111 0.274c-5.204-11.637-14.465-20.682-25.942-25.48l-0.323-0.12c-5.428-2.077-11.706-3.295-18.264-3.328l-815.323 0.461 125.952-126.413c8.561-8.247 13.879-19.81 13.879-32.614 0-0.198-0.001-0.396-0.004-0.593v0.030c-0.036-12.933-5.162-24.662-13.48-33.295l0.014 0.015c-8.408-8.385-20.012-13.569-32.826-13.569-0.124 0-0.247 0-0.371 0.001h0.019c-0.267-0.006-0.582-0.009-0.898-0.009-12.724 0-24.236 5.192-32.532 13.573l-0.004 0.004z" />
<glyph unicode="&#xe90c;" glyph-name="call2" horiz-adv-x="1070" d="M781.336-64c-394.769 0-673.451 386.328-760.012 654.451-33.763 97.12-27.339 181.562 19 249.123 53.205 62.646 127.191 106.219 211.199 120.046l2.041 0.277c0.677 0.064 1.465 0.101 2.261 0.101 10.195 0 18.982-6.024 22.997-14.707l0.065-0.157 137.24-247.004c2.177-4.017 3.457-8.795 3.457-13.871 0-7.672-2.923-14.661-7.715-19.915l0.021 0.023-109.764-111.917c59.732-155.778 178.175-277.649 327.55-340.537l3.93-1.468 114.002 120.324c5.557 4.925 12.912 7.933 20.969 7.933 5.459 0 10.596-1.381 15.080-3.813l-0.167 0.083 249.123-145.68c7.587-3.929 12.682-11.721 12.682-20.702 0-0.147-0.001-0.293-0.004-0.439v0.022c8.441-76.001-33.763-196.325-145.68-219.563-35.43-7.797-76.219-12.401-118.034-12.677l-0.205-0.001zM238.802 900.812c-62.668-10.521-115.941-44.425-151.555-92.255l-0.447-0.628c-35.882-52.763-40.119-118.205-12.678-200.563 57.001-168.884 297.683-614.332 703.011-614.332v0c2.278-0.038 4.965-0.059 7.658-0.059 36.159 0 71.414 3.867 105.375 11.211l-3.268-0.592c73.882 14.763 101.324 95.001 103.442 145.68l-215.291 126.68-111.883-118.205c-5.731-5.724-13.645-9.264-22.386-9.264-2.545 0-5.019 0.3-7.39 0.867l0.216-0.043c-184.897 69.096-327.374 214.312-391.287 396.485l-1.397 4.572c-0.673 2.353-1.061 5.055-1.061 7.847 0 8.574 3.65 16.296 9.482 21.695l0.019 0.018 105.561 109.764z" />
<glyph unicode="&#xe90d;" glyph-name="email" horiz-adv-x="1463" d="M1334.272 960h-1205.687c-0.022 0-0.048 0-0.074 0-70.795 0-128.22-57.245-128.511-127.972v-768.028c0.291-70.755 57.716-128 128.511-128 0.026 0 0.052 0 0.078 0h1205.683c0.044 0 0.095 0 0.147 0 70.781 0 128.189 57.254 128.438 127.976v768.024c-0.249 70.746-57.658 128-128.438 128-0.052 0-0.103 0-0.155 0h0.008zM1316.571 874.642l-493.934-489.179c-23.312-23.199-55.458-37.541-90.953-37.541s-67.641 14.341-90.958 37.546l0.005-0.005-494.446 489.179zM85.723 81.335v733.257l370.395-366.592zM146.286 21.358l370.249 366.226 63.049-62.391c38.848-38.589 92.378-62.438 151.479-62.438s112.631 23.85 151.491 62.45l-0.012-0.012 63.122 62.464 370.907-366.299zM1376.768 81.408l-370.030 366.592 370.395 366.811z" />
<glyph unicode="&#xe90e;" glyph-name="password" d="M480.461 960c-161.924 0-293.193-131.251-293.222-293.168v-87.76q0-1.587 0-3.123h-60.16c-70.053-0.145-126.817-56.837-127.078-126.849v-386.022c0.261-70.078 57-126.817 127.053-127.078h769.868c70.078 0.261 126.817 57 127.078 127.053v386.022c-0.232 70.059-57.007 126.78-127.064 126.925h-60.328q0 1.536 0 3.123v87.706c-0.029 161.866-131.211 293.084-293.060 293.171h-0.008zM480.461 896h63.13c0.351 0.002 0.766 0.003 1.181 0.003 125.917 0 227.994-102.076 227.994-227.994 0-0.415-0.001-0.83-0.003-1.245v0.064-87.757q0-1.587 0-3.123h-521.882q0 1.536 0 3.123v87.757c-0.002 0.352-0.003 0.767-0.003 1.183 0 125.917 102.076 227.994 227.994 227.994 0.559 0 1.118-0.002 1.676-0.006h-0.086zM127.181 512h769.741c0.306 0.005 0.668 0.009 1.030 0.009 34.272 0 62.054-27.783 62.054-62.054 0-0.309-0.002-0.618-0.007-0.925l0.001 0.046v-385.997c0.003-0.245 0.005-0.535 0.005-0.825 0-34.385-27.874-62.259-62.259-62.259-0.29 0-0.579 0.002-0.869 0.006h-769.799c-0.245-0.003-0.535-0.005-0.825-0.005-34.385 0-62.259 27.874-62.259 62.259 0 0.29 0.002 0.579 0.006 0.869v-0.044 385.997c-0.003 0.231-0.005 0.503-0.005 0.777 0 34.272 27.783 62.054 62.054 62.054 0.362 0 0.723-0.003 1.083-0.009l-0.054 0.001zM512 382.003c-52.892-0.019-95.762-42.901-95.762-95.795 0-41.46 26.339-76.769 63.197-90.106l0.667-0.211v-79.616c0-17.673 14.327-32 32-32s32 14.327 32 32v0 79.667c37.578 13.502 63.968 48.828 63.968 90.317 0 52.878-42.866 95.744-95.744 95.744-0.115 0-0.23 0-0.345-0.001h0.018zM512 317.952c0.030 0 0.066 0 0.102 0 17.673 0 32-14.327 32-32s-14.327-32-32-32c-17.673 0-32 14.327-32 32 0 0.036 0 0.072 0 0.108v-0.006c-0.001 0.107-0.002 0.234-0.002 0.36 0 17.419 14.121 31.539 31.539 31.539 0.127 0 0.253-0.001 0.38-0.002h-0.019z" />
<glyph unicode="&#xe90f;" glyph-name="view" horiz-adv-x="1707" d="M853.504 960c-352.171 0-623.957-238.933-755.883-379.477-30.199-31.506-59.039-65.135-85.963-100.309l-2.101-2.859c-5.993-8.099-9.593-18.285-9.593-29.312s3.6-21.213 9.688-29.447l-0.095 0.135s25.6-34.645 69.291-83.2c123.819-136.533 404.907-399.445 774.4-399.445 379.307 0 665.6 276.907 784.299 410.112 38.059 42.667 59.733 72.619 59.733 72.619 5.993 8.099 9.593 18.285 9.593 29.312s-3.6 21.213-9.688 29.447l0.095-0.135s-23.467 32.512-65.024 78.592c-121.685 135.083-405.333 403.968-778.752 403.968zM853.504 857.6c318.891 0 585.045-243.029 698.027-368.555 11.491-12.47 22.674-25.9 33.17-39.876l0.963-1.34c-8.533-11.179-9.899-13.568-29.184-35.243-109.995-123.563-379.477-374.187-703.147-374.187-315.733 0-578.987 237.568-694.101 364.373-12.718 13.635-24.967 28.292-36.395 43.597l-0.981 1.373c17.738 23.569 35.661 44.414 54.824 64.043l-0.125-0.129c122.795 130.645 376.235 345.941 676.949 345.941zM853.504 755.2c-1.698 0.033-3.7 0.052-5.707 0.052-171.067 0-310.195-136.749-314.031-306.895l-0.006-0.357c4.080-170.502 143.265-307.161 314.369-307.161 1.89 0 3.776 0.017 5.658 0.050l-0.283-0.004c1.601-0.029 3.489-0.046 5.381-0.046 171.202 0 310.483 136.668 314.696 306.855l0.008 0.391c-4.077 170.505-143.263 307.167-314.369 307.167-2.010 0-4.015-0.019-6.016-0.056l0.3 0.004zM853.504 652.8c113.108 0 204.8-91.692 204.8-204.8s-91.692-204.8-204.8-204.8v0c-113.108 0-204.8 91.692-204.8 204.8s91.692 204.8 204.8 204.8v0z" />
<glyph unicode="&#xe910;" glyph-name="view-order" d="M688.064-51.392c-62.066 2.274-118.082 26.449-160.937 64.974l0.233-0.206c-31.264 26.493-58.865 55.617-83.047 87.478l-0.985 1.354c-2.688 3.52-6.912 9.664-8.64 12.16-3.729 5.369-5.957 12.024-5.957 19.2s2.228 13.831 6.031 19.312l-0.074-0.112 0.448 0.64c1.856 2.752 5.76 8.448 8.256 11.648 25.164 33.267 52.766 62.433 83.247 88.31l0.785 0.65c42.581 38.394 98.567 62.653 160.167 65.010l0.473 0.014c62.088-2.263 118.127-26.44 161.002-64.975l-0.234 0.207c31.277-26.517 58.88-55.684 83.044-87.599l0.988-1.361c2.688-3.52 6.912-9.664 8.64-12.16 3.745-5.364 5.984-12.020 5.984-19.2s-2.239-13.836-6.057-19.31l0.073 0.11-3.52-4.992c-1.792-2.624-3.712-5.312-5.12-7.168-25.169-33.276-52.793-62.443-83.306-88.307l-0.79-0.653c-42.6-38.403-98.61-62.663-160.233-65.010l-0.471-0.014zM688.064 253.312c-77.247-9.687-142.794-52.822-182.566-114.209l-0.602-0.991-3.2-4.032 3.2-4.032c40.399-62.353 105.933-105.476 181.914-115.071l1.254-0.129c77.25 9.678 142.8 52.816 182.566 114.208l0.602 0.992 3.264 4.032-3.264 4.032c-40.368 62.384-105.918 105.522-181.92 115.072l-1.248 0.128zM393.6-51.392h-169.664c-81.663 1.719-147.206 68.326-147.206 150.241 0 0.461 0.002 0.922 0.006 1.382v-0.070 695.296c-0.004 0.39-0.006 0.85-0.006 1.311 0 81.915 65.542 148.521 147.046 150.238l0.16 0.003h473.6c81.817-1.436 147.591-68.098 147.591-150.122 0-0.503-0.002-1.005-0.007-1.506l0.001 0.077v-377.6c0-17.779-14.413-32.192-32.192-32.192s-32.192 14.413-32.192 32.192v0 377.6c0.002 0.194 0.003 0.423 0.003 0.653 0 46.246-37.076 83.833-83.125 84.658l-0.077 0.001h-473.6c-46.119-0.79-83.203-38.363-83.203-84.596 0-0.252 0.001-0.503 0.003-0.754v0.039-695.168c-0.002-0.231-0.004-0.505-0.004-0.779 0-46.221 37.091-83.779 83.133-84.532l0.071-0.001h169.664c17.707-0.802 31.758-15.352 31.758-33.184s-14.052-32.382-31.686-33.181l-0.072-0.003zM688 64.896c-37.997 0-68.8 30.803-68.8 68.8s30.803 68.8 68.8 68.8v0h2.048c36.755-1.566 65.959-31.743 65.959-68.741 0-37.696-30.316-68.311-67.898-68.794h-0.046zM464.768 327.68h-202.432c-17.707 0.802-31.758 15.352-31.758 33.184s14.052 32.382 31.686 33.181l0.072 0.003h202.432c17.707-0.802 31.758-15.352 31.758-33.184s-14.052-32.382-31.686-33.181l-0.072-0.003zM659.136 485.824h-396.8c-17.707 0.802-31.758 15.352-31.758 33.184s14.052 32.382 31.686 33.181l0.072 0.003h396.8c17.707-0.802 31.758-15.352 31.758-33.184s-14.052-32.382-31.686-33.181l-0.072-0.003zM659.136 643.84h-396.8c-0.435-0.020-0.945-0.032-1.458-0.032-18.345 0-33.216 14.871-33.216 33.216s14.871 33.216 33.216 33.216c0.513 0 1.023-0.012 1.53-0.035l-0.072 0.003h396.8c18.345 0 33.216-14.871 33.216-33.216s-14.871-33.216-33.216-33.216v0z" />
<glyph unicode="&#xe911;" glyph-name="trash" d="M984.627 802.56h-186.88c-47.258 0-49.306 5.99-62.259 44.8l-10.496 31.846c-15.991 47.327-59.991 80.794-111.808 80.794-0.149 0-0.297 0-0.446-0.001h-201.5c-0.085 0-0.186 0-0.286 0-51.798 0-95.784-33.442-111.546-79.913l-0.244-0.83-10.496-31.846c-12.954-38.81-15.002-44.8-62.259-44.8h-187.034c-0.423 0.016-0.92 0.026-1.42 0.026-21.745 0-39.373-17.628-39.373-39.373s17.628-39.373 39.373-39.373c0.499 0 0.996 0.009 1.491 0.028l-0.071-0.002h68.301l40.294-603.494c-0.022-1.058-0.035-2.305-0.035-3.555 0-99.846 80.941-180.787 180.787-180.787 5.546 0 11.033 0.25 16.452 0.738l-0.698-0.051h335.36c4.72-0.438 10.207-0.688 15.753-0.688 99.846 0 180.787 80.941 180.787 180.787 0 1.25-0.013 2.497-0.038 3.741l0.003-0.186 40.090 603.494h68.25c0.423-0.016 0.92-0.026 1.42-0.026 21.745 0 39.373 17.628 39.373 39.373s-17.628 39.373-39.373 39.373c-0.499 0-0.996-0.009-1.491-0.028l0.071 0.002zM373.914 854.374c5.336 15.776 20.006 26.931 37.281 26.931 0.015 0 0.030 0 0.046 0h201.521c0.013 0 0.028 0 0.043 0 17.275 0 31.945-11.155 37.2-26.655l0.081-0.277 10.496-31.846c2.253-6.861 4.608-13.517 7.117-19.917h-311.859c2.509 6.451 5.12 13.107 7.117 19.917zM797.594 125.645c0.179-2.28 0.281-4.938 0.281-7.62 0-57.204-46.373-103.578-103.578-103.578-5.102 0-10.117 0.369-15.022 1.081l0.559-0.067h-335.514c-4.346-0.646-9.361-1.015-14.463-1.015-57.204 0-103.578 46.373-103.578 103.578 0 2.681 0.102 5.339 0.302 7.969l-0.021-0.35-40.141 598.221h39.731c6.554 0 11.981 0.666 17.92 1.126 1.431-0.452 3.16-0.846 4.933-1.104l0.187-0.022h525.363c1.96 0.281 3.689 0.674 5.364 1.191l-0.244-0.065c5.939-0.41 11.366-1.126 17.92-1.126h39.834zM656.435 500.787v-262.4c0-21.745-17.628-39.373-39.373-39.373s-39.373 17.628-39.373 39.373v0 262.451c0 21.745 17.628 39.373 39.373 39.373s39.373-17.628 39.373-39.373v0zM446.515 500.787v-262.4c0-21.745-17.628-39.373-39.373-39.373s-39.373 17.628-39.373 39.373v0 262.451c0 21.745 17.628 39.373 39.373 39.373s39.373-17.628 39.373-39.373v0z" />
<glyph unicode="&#xe912;" glyph-name="play-circle" d="M149.965 85.965c-91.709 92.493-148.379 219.853-148.379 360.45 0 282.77 229.23 512 512 512 140.596 0 267.957-56.67 360.485-148.414l-0.035 0.035c91.709-92.493 148.379-219.853 148.379-360.45 0-282.77-229.23-512-512-512-140.596 0-267.957 56.67-360.485 148.414l0.035-0.035zM64 448c0-247.424 200.576-448 448-448s448 200.576 448 448c0 247.424-200.576 448-448 448v0c-247.312-0.277-447.723-200.688-448-447.973v-0.027zM418.15 269.722c-10.108 5.504-16.856 16.042-16.87 28.158v305.128c0 0.004 0 0.009 0 0.014 0 17.659 14.315 31.974 31.974 31.974 6.623 0 12.776-2.014 17.88-5.462l-0.113 0.072 228.787-152.525c8.64-5.821 14.247-15.568 14.247-26.624s-5.607-20.803-14.133-26.552l-0.114-0.072-228.787-152.474c-4.99-3.37-11.14-5.38-17.759-5.38-5.534 0-10.739 1.405-15.279 3.877l0.168-0.084zM465.28 357.734l139.11 92.826-139.11 92.749z" />
<glyph unicode="&#xe913;" glyph-name="delivery" horiz-adv-x="1536" d="M1170.227 312.934c-104.059 0-188.416-84.357-188.416-188.416s84.357-188.416 188.416-188.416c104.059 0 188.416 84.357 188.416 188.416v0c-0.117 104.012-84.404 188.299-188.405 188.416h-0.011zM1170.227 30.31c-52.030 0-94.208 42.178-94.208 94.208s42.178 94.208 94.208 94.208c52.030 0 94.208-42.178 94.208-94.208v0c0-0.015 0-0.033 0-0.051 0-52.050-42.166-94.252-94.202-94.31h-0.006zM496.128 312.934c-104.059 0-188.416-84.357-188.416-188.416s84.357-188.416 188.416-188.416c104.059 0 188.416 84.357 188.416 188.416v0c-0.117 104.012-84.404 188.299-188.405 188.416h-0.011zM496.128 30.31c-52.030 0-94.208 42.178-94.208 94.208s42.178 94.208 94.208 94.208c52.030 0 94.208-42.178 94.208-94.208v0c0-0.015 0-0.033 0-0.051 0-52.050-42.166-94.252-94.202-94.31h-0.006zM1297.050 839.68c-7.929 15.508-23.787 25.944-42.084 25.958h-248.066v-94.208h219.034l128.256-255.078 84.173 42.342zM654.029 169.984h356.403v-94.208h-356.403v94.208zM343.808 169.984h-163.277c-26.015 0-47.104-21.089-47.104-47.104s21.089-47.104 47.104-47.104h163.277c26.015 0 47.104 21.089 47.104 47.104s-21.089 47.104-47.104 47.104v0zM1525.76 452.659l-95.437 117.76c-9.101 11.010-22.76 17.972-38.045 17.972-0.107 0-0.214 0-0.32-0.001h-352.598v325.171c-0.596 25.779-21.635 46.45-47.502 46.45-0.364 0-0.728-0.004-1.090-0.012l0.054 0.001h-808.96c-0.46 0.016-1 0.026-1.543 0.026-25.675 0-46.49-20.814-46.49-46.49s20.814-46.49 46.49-46.49c0.542 0 1.083 0.009 1.621 0.028l-0.078-0.002h760.32v-325.222c0.596-25.779 21.635-46.45 47.502-46.45 0.364 0 0.728 0.004 1.090 0.012l-0.054-0.001h377.446l70.656-87.040v-239.616h-134.195c-26.829 0-39.475-20.787-39.475-46.438s12.646-46.438 39.475-46.438h182.784c0.308-0.007 0.672-0.011 1.036-0.011 25.867 0 46.906 20.67 47.501 46.394l0.001 0.055v302.080c-0.086 10.766-3.917 20.62-10.252 28.342l0.063-0.079zM340.48 403.558h-216.422c-26.015 0-47.104-21.089-47.104-47.104s21.089-47.104 47.104-47.104h216.422c26.015 0 47.104 21.089 47.104 47.104s-21.089 47.104-47.104 47.104v0zM449.024 586.598h-401.92c-26.015 0-47.104-21.089-47.104-47.104s21.089-47.104 47.104-47.104v0h401.92c26.015 0 47.104 21.089 47.104 47.104s-21.089 47.104-47.104 47.104v0zM525.978 769.382h-401.92c-26.015 0-47.104-21.089-47.104-47.104s21.089-47.104 47.104-47.104v0h401.92c26.015 0 47.104 21.089 47.104 47.104s-21.089 47.104-47.104 47.104v0z" />
<glyph unicode="&#xe914;" glyph-name="check" d="M512 960c-282.77 0-512-229.23-512-512s229.23-512 512-512c282.77 0 512 229.23 512 512v0c-0.324 282.639-229.36 511.675-511.968 512h-0.032zM771.496 556.5l-277.328-277.328c-7.716-7.727-18.382-12.507-30.164-12.507s-22.448 4.78-30.164 12.507l-138.665 138.665c-8.092 7.775-13.119 18.688-13.119 30.775 0 23.559 19.098 42.657 42.657 42.657 12.080 0 22.987-5.021 30.748-13.090l0.013-0.014 108.5-108.5 247.223 247.223c7.72 7.72 18.384 12.494 30.164 12.494 23.56 0 42.658-19.099 42.658-42.658 0-11.78-4.775-22.444-12.494-30.164v0z" />
<glyph unicode="&#xe915;" glyph-name="password-hide" horiz-adv-x="1365" d="M852.173 436.531l77.551 77.551c5.684-20.084 8.952-43.15 8.952-66.979 0-140.857-114.187-255.044-255.044-255.044-23.829 0-46.894 3.268-68.773 9.38l1.794-0.428 77.551 77.551c84.794 5.921 152.116 73.244 158.007 157.502l0.030 0.535zM1359.94 468.753c-60.156 98.609-135.225 181.681-223.117 248.817l-2.163 1.586-62.123-62.123c78.285-58.385 144.547-127.535 198.050-206.073l1.903-2.959c-50.586-77.005-248.969-341.333-589.824-341.333-50.928 0.138-100.343 6.327-147.654 17.885l4.294-0.887-70.11-70.11c63.819-20.44 137.232-32.222 213.396-32.222 0.026 0 0.052 0 0.079 0h-0.004c446.669 0 668.058 389.12 677.274 405.914 3.343 5.946 5.312 13.051 5.312 20.617s-1.969 14.671-5.422 20.832l0.111-0.215zM1182.447 887.228l-938.94-938.735c-7.722-7.722-18.39-12.498-30.174-12.498-23.567 0-42.672 19.105-42.672 42.672 0 11.784 4.776 22.452 12.498 30.174l119.398 119.398c-122.143 75.908-222.034 176.475-294.939 295.377l-2.226 3.904c-3.378 5.971-5.368 13.112-5.368 20.719s1.99 14.748 5.479 20.932l-0.111-0.213c9.216 16.316 230.605 405.709 677.274 405.709 0.503 0.001 1.1 0.002 1.696 0.002 108.564 0 211.505-24.078 303.773-67.185l-4.413 1.852 138.103 138.103c7.722 7.722 18.39 12.498 30.174 12.498 23.567 0 42.672-19.105 42.672-42.672 0-11.784-4.776-22.452-12.498-30.174v0zM366.251 191.932l107.998 107.998c-29.79 41.26-47.647 92.851-47.647 148.613 0 141.159 114.432 255.59 255.59 255.59 55.762 0 107.353-17.857 149.366-48.164l-0.753 0.517 87.381 87.381c-69.436 28.763-150.074 45.466-234.613 45.466-0.319 0-0.637 0-0.956-0.001h0.049c-340.855 0-539.307-264.26-589.824-341.333 71.27-105.038 162.637-191.021 269.179-254.075l3.888-2.129zM536.235 361.916l232.653 232.653c-24.61 15.020-54.357 23.964-86.184 24.098h-0.037c-94.257 0-170.667-76.41-170.667-170.667v0c0.17-31.848 9.135-61.567 24.587-86.895l-0.421 0.743z" />
<glyph unicode="&#xe916;" glyph-name="order-summary" d="M997.632 637.76c-16.3 16.265-38.799 26.322-63.648 26.322s-47.348-10.058-63.65-26.324l-90.238-90.302v237.696c0 0.040 0 0.087 0 0.135 0 24.804-10.079 47.255-26.365 63.479l-84.867 84.867c-16.227 16.289-38.677 26.368-63.482 26.368-0.070 0-0.14 0-0.209 0h-515.189c-49.667-0.073-89.911-40.316-89.984-89.977v-844.039c0.073-49.667 40.316-89.911 89.977-89.984h600.071c49.667 0.073 89.911 40.316 89.984 89.977v266.759l217.6 217.6c16.349 16.285 26.466 38.817 26.466 63.712s-10.117 47.427-26.463 63.709l-0.003 0.003zM600.064 899.968c1.147 0.142 2.474 0.223 3.82 0.223 8.743 0 16.687-3.424 22.562-9.005l-0.014 0.013 84.864-84.8c5.567-5.862 8.991-13.805 8.991-22.548 0-1.346-0.081-2.673-0.239-3.977l0.015 0.157h-120zM720.064 25.984c0-16.577-13.439-30.016-30.016-30.016v0h-600.064c-16.577 0-30.016 13.439-30.016 30.016v0 844.032c0.036 16.55 13.461 29.952 30.016 29.952 0 0 0 0 0 0h450.048v-149.952c0-16.577 13.439-30.016 30.016-30.016h150.016v-232.64l-130.944-131.008c-3.197-3.202-5.675-7.124-7.169-11.501l-0.063-0.211-42.432-127.040c-0.972-2.826-1.533-6.082-1.533-9.469 0-16.577 13.439-30.016 30.016-30.016 3.387 0 6.643 0.561 9.68 1.595l-0.211-0.063 127.296 42.432c4.589 1.555 8.511 4.033 11.712 7.232l3.648 3.648v-206.72zM652.8 335.104l42.432-42.432-16.192-16.192-63.616-21.184 21.184 63.616zM737.664 335.104l-42.496 42.496 144.192 144.32 42.432-42.432zM955.264 552.704l-30.912-30.976-42.304 42.624 30.72 30.848c5.484 5.795 13.23 9.401 21.817 9.401 16.577 0 30.016-13.439 30.016-30.016 0-8.588-3.606-16.333-9.387-21.804l-0.014-0.013zM605.248 661.184h-445.952c-17.673 0-32-14.327-32-32s14.327-32 32-32v0h445.952c17.673 0 32 14.327 32 32s-14.327 32-32 32v0zM477.824 541.632h-318.528c-17.673 0-32-14.327-32-32s14.327-32 32-32v0h318.528c17.673 0 32 14.327 32 32s-14.327 32-32 32v0zM477.824 422.080h-318.528c-17.673 0-32-14.327-32-32s14.327-32 32-32v0h318.528c17.673 0 32 14.327 32 32s-14.327 32-32 32v0zM477.824 302.528h-318.528c-17.673 0-32-14.327-32-32s14.327-32 32-32v0h318.528c17.673 0 32 14.327 32 32s-14.327 32-32 32v0zM576.064 127.104h-191.104c-17.673 0-32-14.327-32-32s14.327-32 32-32v0h191.104c17.673 0 32 14.327 32 32s-14.327 32-32 32v0z" />
<glyph unicode="&#xe917;" glyph-name="sort" horiz-adv-x="1127" d="M1111.375 279.375c-9.315 9.259-22.154 14.983-36.33 14.983s-27.015-5.723-36.333-14.985l0.003 0.003-168.977-168.625v798.064c0 28.386-23.011 51.397-51.397 51.397s-51.397-23.011-51.397-51.397v0-797.993l-168.977 168.625c-9.287 9.322-22.135 15.090-36.33 15.090-28.321 0-51.279-22.958-51.279-51.279 0-14.125 5.711-26.917 14.95-36.191l-0.002 0.002 256.915-256c9.319-9.28 22.172-15.018 36.365-15.018s27.047 5.737 36.367 15.019l-0.002-0.002 256.915 256c9.294 9.247 15.046 22.046 15.046 36.189s-5.752 26.943-15.044 36.187l-0.002 0.002zM601.699 689.003l-256.915 256c-4.667 4.663-10.235 8.424-16.42 11l-0.337 0.124c-5.806 2.46-12.558 3.89-19.644 3.89s-13.838-1.43-19.983-4.017l0.339 0.127c-6.522-2.7-12.090-6.462-16.757-11.125v0l-256.915-256c-8.599-9.155-13.882-21.513-13.882-35.104 0-28.347 22.98-51.327 51.327-51.327 13.679 0 26.108 5.351 35.308 14.074l-0.023-0.022 168.977 168.625v-798.064c0-28.386 23.011-51.397 51.397-51.397s51.397 23.011 51.397 51.397v0 797.993l168.977-168.625c9.333-9.421 22.274-15.254 36.576-15.254 28.431 0 51.479 23.048 51.479 51.479 0 14.128-5.691 26.927-14.906 36.228l0.004-0.004z" />
<glyph unicode="&#xe918;" glyph-name="filter" horiz-adv-x="1170" d="M851.090 806.4c2.688 86.080 73.113 154.838 159.598 154.838s156.91-68.759 159.592-154.592l0.006-0.246c-2.688-86.080-73.113-154.838-159.598-154.838s-156.91 68.759-159.592 154.592l-0.006 0.246zM53.175 755.2h638.318c28.277 0 51.2 22.923 51.2 51.2s-22.923 51.2-51.2 51.2v0h-638.318c-28.277 0-51.2-22.923-51.2-51.2s22.923-51.2 51.2-51.2v0zM372.37 601.6c-0.362 0.003-0.791 0.005-1.219 0.005-67.524 0-125.236-42.011-148.424-101.321l-0.373-1.083h-169.179c-28.277 0-51.2-22.923-51.2-51.2s22.923-51.2 51.2-51.2h169.179c24.007-60.575 82.087-102.633 149.989-102.633 12.929 0 25.501 1.525 37.547 4.404l-1.095-0.221c70.891 14.84 123.368 76.829 123.368 151.074 0 5.708-0.31 11.343-0.914 16.89l0.061-0.686c-10.969 77.247-76.658 135.999-156.069 135.999-1.009 0-2.017-0.009-3.022-0.028l0.151 0.002zM1117.111 499.2h-425.545c-28.277 0-51.2-22.923-51.2-51.2s22.923-51.2 51.2-51.2h425.545c28.277 0 51.2 22.923 51.2 51.2s-22.923 51.2-51.2 51.2v0zM478.72 140.8h-425.545c-28.277 0-51.2-22.923-51.2-51.2s22.923-51.2 51.2-51.2h425.545c28.277 0 51.2 22.923 51.2 51.2s-22.923 51.2-51.2 51.2v0zM1117.038 140.8h-169.106c-23.847 60.557-81.829 102.634-149.639 102.634-9.826 0-19.446-0.884-28.784-2.575l0.978 0.147c-75.167-10.359-132.437-74.176-132.437-151.369s57.27-141.010 131.639-151.279l0.798-0.090c8.368-1.548 17.997-2.433 27.832-2.433 67.784 0 125.748 42.046 149.234 101.479l0.378 1.086h169.179c28.277 0 51.2 22.923 51.2 51.2s-22.923 51.2-51.2 51.2v0z" />
<glyph unicode="&#xe919;" glyph-name="copy-two-paper" horiz-adv-x="922" d="M688.64 954.88h-390.605c-69.946-1.859-126.404-57.107-130.187-126.378l-0.015-0.342-37.632-0.87c-68.581-1.874-123.639-57.2-125.079-125.713l-0.002-0.137v-633.6c3.797-69.613 60.256-124.86 130.024-126.716l0.178-0.004h488.243c69.946 1.859 126.404 57.107 130.187 126.378l0.015 0.342h32.563c69.946 1.859 126.404 57.107 130.187 126.378l0.015 0.342v506.112zM623.565 4.454h-488.243c-34.878 1.168-62.97 28.674-65.066 63.197l-0.009 0.188v633.6c0.726 34.064 28.107 61.498 62.080 62.309l0.076 0.001 35.84 1.024v-570.214c3.797-69.613 60.256-124.86 130.024-126.716l0.178-0.004h390.605c-2.12-34.849-30.432-62.432-65.393-63.384l-0.091-0.002zM851.405 194.56c-2.131-34.69-30.214-62.168-64.964-63.331l-0.111-0.003h-488.294c-34.861 1.166-62.944 28.644-65.066 63.144l-0.009 0.191v633.6c2.131 34.69 30.214 62.168 64.964 63.331l0.111 0.003h325.478c-0.512-72.96 0-127.488 0-127.488 3.491-69.592 60.217-124.836 130.093-125.951l0.108-0.001h97.638zM753.766 701.44c-34.662 0-65.075 61.44-65.075 94.208v94.874l162.714-189.082zM688.64 510.771h-292.915c-17.475 0-31.642-14.166-31.642-31.642s14.166-31.642 31.642-31.642h292.915c17.475 0 31.642 14.166 31.642 31.642s-14.166 31.642-31.642 31.642v0zM688.64 352.512h-292.915c-17.475 0-31.642-14.166-31.642-31.642s14.166-31.642 31.642-31.642h292.915c17.475 0 31.642 14.166 31.642 31.642s-14.166 31.642-31.642 31.642v0zM298.035 960h392.909l230.656-257.331v-508.109c-3.781-72.422-62.518-129.947-135.094-131.785l-0.176-0.004h-27.597c-6.553-70.11-64.182-124.813-134.981-126.716l-0.187-0.004h-488.294c-72.752 1.842-131.489 59.367-135.256 131.448l-0.014 0.341v633.6c1.632 71.399 58.871 128.906 130.009 130.965l32.858 0.772c6.503 70.154 64.15 124.91 134.981 126.818l0.187 0.004zM686.387 949.76h-388.352c-67.243-1.624-121.569-54.738-125.119-121.33l-0.014-0.321v-5.12l-42.598-0.973c-65.833-1.869-118.671-54.94-120.164-120.691l-0.003-0.141v-633.395c3.617-66.869 57.924-119.928 124.977-121.546l0.155-0.003h488.294c67.243 1.624 121.569 54.738 125.119 121.33l0.014 0.321v5.12h37.632c67.243 1.624 121.569 54.738 125.119 121.33l0.014 0.321v504.218zM683.571 904.141l8.909-10.24 169.984-197.581h-108.698c-39.834 0-70.144 66.15-70.144 99.277zM840.397 706.56l-146.688 170.445v-81.357c0-32.717 29.645-89.139 60.058-89.139zM298.035 896.614h330.65v-5.12c-0.512-72.090 0-126.874 0-127.437 3.784-66.671 58.063-119.489 124.993-120.932l0.14-0.002h102.707v-448.614c-1.92-37.613-32.417-67.505-70.104-68.453l-0.091-0.002h-488.294c-37.756 0.977-68.226 30.858-70.137 68.281l-0.007 0.174v633.702c1.945 37.574 32.405 67.428 70.051 68.401l0.093 0.002zM618.445 886.374h-320.41c-32.095-1.155-57.94-26.396-60.048-58.129l-0.010-0.188v-633.549c2.118-31.921 27.962-57.162 59.948-58.314l0.11-0.003h488.294c32.095 1.155 57.94 26.396 60.048 58.129l0.010 0.188v438.528h-92.621c-36.948 0.579-70.27 15.642-94.63 39.743l0.012-0.012c-24.381 23.004-39.812 55.266-40.65 91.138l-0.003 0.152c0 0.461-0.512 52.582-0.051 122.419zM173.005 769.946v-575.437c3.564-66.913 57.89-120.027 124.977-121.648l0.156-0.003h395.674v-5.12c-1.918-37.596-32.388-67.478-70.051-68.452l-0.093-0.002h-488.397c-37.756 0.977-68.226 30.858-70.137 68.281l-0.007 0.174v633.702c0.862 36.835 30.455 66.482 67.188 67.429l0.089 0.002zM683.315 62.72h-385.28c-72.752 1.842-131.489 59.367-135.256 131.448l-0.014 0.341v565.094l-30.413-0.87c-31.28-0.809-56.416-25.999-57.138-57.224l-0.001-0.068v-633.651c2.118-31.921 27.962-57.162 59.948-58.314l0.11-0.003h488.294c30.315 1.231 55.029 23.713 59.703 52.888l0.048 0.36zM395.674 515.84h292.966c20.275 0 36.71-16.436 36.71-36.71s-16.436-36.71-36.71-36.71h-292.966c-20.275 0-36.71 16.436-36.71 36.71s16.436 36.71 36.71 36.71v0zM688.64 452.557c14.676 0 26.573 11.897 26.573 26.573s-11.897 26.573-26.573 26.573v0h-292.966c-14.676 0-26.573-11.897-26.573-26.573s11.897-26.573 26.573-26.573v0zM395.674 357.581h292.966c20.275 0 36.71-16.436 36.71-36.71s-16.436-36.71-36.71-36.71h-292.966c-20.275 0-36.71 16.436-36.71 36.71s16.436 36.71 36.71 36.71v0zM688.691 294.4c14.676 0 26.573 11.897 26.573 26.573s-11.897 26.573-26.573 26.573v0h-293.018c-14.676 0-26.573-11.897-26.573-26.573s11.897-26.573 26.573-26.573v0z" />
<glyph unicode="&#xe91a;" glyph-name="location" horiz-adv-x="683" d="M341.333 960c-0.010 0-0.023 0-0.036 0-188.513 0-341.333-152.82-341.333-341.333 0-59.424 15.185-115.301 41.887-163.963l-0.891 1.773 281.429-509.497c3.712-6.604 10.673-10.993 18.66-10.993s14.948 4.388 18.604 10.886l0.055 0.107 281.771 509.611c25.772 46.861 40.934 102.698 40.934 162.077 0 188.424-152.676 341.189-341.066 341.333h-0.014zM341.333 448c-94.257 0-170.667 76.41-170.667 170.667s76.41 170.667 170.667 170.667c94.257 0 170.667-76.41 170.667-170.667v0c0-94.257-76.41-170.667-170.667-170.667v0z" />
<glyph unicode="&#xe91b;" glyph-name="minus" horiz-adv-x="5120" d="M0 960h5120v-1024h-5120v1024z" />
<glyph unicode="&#xe91c;" glyph-name="plus" d="M426.596-63.915v426.596h-426.596v170.638h426.596v426.596h170.638v-426.596h426.596v-170.638h-426.596v-426.596z" />
<glyph unicode="&#xe91d;" glyph-name="user-fill" d="M512 448c-86.684 0.425-156.79 70.794-156.79 157.537 0 87.006 70.532 157.538 157.538 157.538s157.538-70.531 157.538-157.537v0c-0.313-87.073-70.972-157.539-158.089-157.539-0.070 0-0.139 0-0.209 0h0.011zM660.716 421.494c54.296 43.508 88.765 109.814 88.765 184.171 0 12.844-1.028 25.447-3.007 37.733l0.179-1.349c-18.877 113.937-116.686 199.752-234.539 199.752-130.746 0-236.823-105.62-237.564-236.191v-0.071c0.002-74.311 34.46-140.575 88.269-183.684l0.465-0.36c-135.956-50.849-233.304-174.545-245.046-322.35l-0.084-1.312c-0.117-1.146-0.184-2.476-0.184-3.821 0-21.911 17.68-39.692 39.553-39.856h0.016c0.175-0.003 0.382-0.004 0.589-0.004 20.162 0 36.75 15.304 38.782 34.929l0.014 0.167c11.015 157.093 141.156 280.359 300.086 280.359 5.273 0 10.514-0.136 15.72-0.404l-0.73 0.030c4.477 0.238 9.718 0.374 14.991 0.374 158.931 0 289.071-123.266 300.033-279.408l0.054-0.951c2.047-19.791 18.634-35.093 38.795-35.093 0.11 0 0.22 0 0.33 0.001h-0.017c21.888 0.164 39.568 17.945 39.568 39.856 0 1.346-0.067 2.676-0.197 3.987l0.013-0.166c-11.778 149.058-109.012 272.731-242.266 322.81l-2.588 0.853z" />
<glyph unicode="&#xe91e;" glyph-name="compare-light" d="M694.666 56.714c-4.651 1.997-8.59 4.838-11.791 8.361l-0.025 0.028c-3.612 3.145-6.427 7.112-8.163 11.615l-0.068 0.201c-1.555 3.751-2.458 8.107-2.458 12.675 0 0.681 0.020 1.358 0.060 2.030l-0.004-0.093c0.014 10.486 4.785 19.856 12.271 26.067l0.056 0.045 96.886 96.965h-627.003c-9.916 0.193-18.846 4.264-25.365 10.753l0.001-0.001c-6.583 6.537-10.657 15.593-10.657 25.6s4.074 19.063 10.655 25.598l0.002 0.002c6.524 6.466 15.456 10.512 25.333 10.673h626.877l-96.886 97.044c-4.865 4.882-8.434 11.059-10.145 17.969l-0.056 0.266c-0.331 1.98-0.521 4.26-0.521 6.585 0 5.186 0.942 10.151 2.664 14.735l-0.095-0.289c2.942 6.64 7.436 12.133 13.039 16.187l0.115 0.079c5.545 3.846 12.416 6.145 19.825 6.145 0.078 0 0.156 0 0.234-0.001h2.115l3.19-0.473c8.164-1.336 15.287-5.070 20.803-10.445l158.476-158.594c6.589-6.442 10.674-15.42 10.674-25.353 0-0.087 0-0.174-0.001-0.26v0.013c-0.055-9.976-4.124-18.991-10.672-25.52l-158.721-158.563c-3.321-3.592-7.229-6.582-11.581-8.83l-0.234-0.11c-4.094-1.888-8.845-3.201-13.839-3.688l-0.182-0.014c-0.247-0.006-0.539-0.009-0.831-0.009-5.028 0-9.832 0.957-14.24 2.7l0.262-0.091zM287.508 462.494l-158.681 158.484c-3.159 3.367-5.801 7.269-7.766 11.546l-0.111 0.27c-1.701 4.146-2.721 8.954-2.796 13.991v0.030c0.068 5.018 1.118 9.774 2.967 14.106l-0.092-0.243c1.93 4.595 4.59 8.518 7.878 11.816l-0.001-0.001 158.602 158.287c4.937 5.371 11.532 9.149 18.97 10.523l0.211 0.032 2.875 0.512h3.938c0.087 0.001 0.19 0.001 0.292 0.001 7.396 0 14.249-2.33 19.863-6.296l-0.108 0.072c5.935-3.908 10.497-9.473 13.075-16.035l0.080-0.231c1.722-4.069 2.723-8.8 2.723-13.766 0-2.6-0.275-5.137-0.796-7.581l0.042 0.237c-1.639-7.433-5.323-13.834-10.427-18.777l-0.010-0.010-96.177-96.335h626.609c0.219 0.039 0.471 0.061 0.729 0.061s0.51-0.022 0.755-0.064l-0.026 0.004c0.016 0 0.034 0 0.052 0 4.563 0 8.892-1.001 12.779-2.796l-0.189 0.078c4.743-1.594 8.787-4.191 12.044-7.554l0.008-0.008c3.581-3.282 6.379-7.359 8.121-11.956l0.071-0.214c1.8-3.781 2.851-8.217 2.851-12.898 0-0.339-0.006-0.678-0.016-1.014l0.001 0.049c0.002-0.143 0.003-0.311 0.003-0.479 0-4.917-1.060-9.586-2.964-13.792l0.085 0.211c-4.003-8.952-11.127-15.909-19.956-19.6l-0.249-0.092c-4.176-1.598-9.005-2.534-14.049-2.56l-627.172 0.354 96.886-97.241c6.586-6.344 10.676-15.238 10.676-25.088 0-0.152-0.001-0.304-0.003-0.456v0.023c-0.028-9.949-3.971-18.971-10.369-25.611l0.011 0.011c-6.468-6.45-15.394-10.438-25.251-10.438-0.095 0-0.19 0-0.285 0.001h0.015c-0.206-0.004-0.448-0.007-0.691-0.007-9.788 0-18.643 3.994-25.024 10.441l-0.003 0.003z" />
<glyph unicode="&#xe91f;" glyph-name="delivery-cart" d="M681.354 122.329h-120.281c-17.070-62.447-73.299-107.589-140.071-107.589s-123.001 45.142-139.834 106.572l-0.238 1.017h-113.9c-20.022 0-36.254 16.231-36.254 36.254s16.231 36.254 36.254 36.254v0h113.388c16.319 63.526 73.076 109.72 140.623 109.72s124.303-46.194 140.403-108.714l0.22-1.006h119.138c16.247 63.581 73.017 109.837 140.591 109.837 55.097 0 103.011-30.752 127.515-76.028l0.379-0.766v150.174l-54.351 66.954h-211.574c-0.225-0.005-0.491-0.008-0.757-0.008-19.919 0-36.12 15.917-36.578 35.726l-0.001 0.043v250.25h-466.708c-0.226-0.005-0.492-0.008-0.758-0.008-19.905 0-36.098 15.895-36.577 35.685l-0.001 0.045c0.48 19.834 16.673 35.73 36.578 35.73 0.267 0 0.533-0.003 0.798-0.009l-0.040 0.001h504.123c0.225 0.005 0.491 0.008 0.757 0.008 19.897 0 36.081-15.9 36.539-35.687l0.001-0.043v-36.746h66.481c14.076-0.011 26.275-8.039 32.279-19.763l0.095-0.205 97.28-193.615c10.439-0.968 19.529-6.057 25.745-13.602l0.052-0.065 73.452-90.585c4.871-5.928 7.837-13.583 7.877-21.929v-232.378c-0.458-19.83-16.642-35.731-36.54-35.731-0.28 0-0.56 0.003-0.838 0.009l0.041-0.001h-25.206c-17.067-62.428-73.279-107.555-140.032-107.555s-122.965 45.127-139.794 106.538l-0.238 1.017zM748.938 159.665c0.022-40.006 32.459-72.428 72.468-72.428 40.023 0 72.468 32.445 72.468 72.468s-32.445 72.468-72.468 72.468c0 0 0 0 0 0v0c-40.032-0.045-72.468-32.508-72.468-72.546v0zM348.593 159.665c0.022-40.006 32.459-72.428 72.468-72.428 40.023 0 72.468 32.445 72.468 72.468s-32.445 72.468-72.468 72.468c0 0 0 0 0 0v0c-40.028-0.022-72.468-32.476-72.468-72.507 0-0.014 0-0.028 0-0.042v0.002zM720.738 516.569h115.003l-70.892 140.918h-44.111zM95.468 302.277c-20.011 0-36.234 16.222-36.234 36.234s16.222 36.234 36.234 36.234h166.636c20.011 0 36.234-16.222 36.234-36.234s-16.222-36.234-36.234-36.234v0zM36.234 442.801c-20.022 0-36.254 16.231-36.254 36.254s16.231 36.254 36.254 36.254h309.209c20.022 0 36.254-16.231 36.254-36.254s-16.231-36.254-36.254-36.254v0zM95.311 583.365c-20.011 0-36.234 16.222-36.234 36.234s16.222 36.234 36.234 36.234h309.169c20.011 0 36.234-16.222 36.234-36.234s-16.222-36.234-36.234-36.234v0z" />
<glyph unicode="&#xe920;" glyph-name="basket" d="M629.918 115.082c0 0.047 0 0.103 0 0.158 0 57.307 46.345 103.79 103.6 104.014h0.021c57.276-0.224 103.621-46.707 103.621-104.014 0-0.056 0-0.111 0-0.167v0.009c0-0.070 0-0.154 0-0.237 0-57.307-46.345-103.79-103.6-104.014h-0.021c-57.276 0.224-103.621 46.707-103.621 104.014 0 0.083 0 0.167 0 0.25v-0.013zM703.055 115.082c0-0.024 0-0.051 0-0.079 0-16.867 13.629-30.551 30.475-30.641h0.008c16.855 0.089 30.484 13.773 30.484 30.641 0 0.028 0 0.056 0 0.084v-0.004c0 0.035 0 0.077 0 0.119 0 16.867-13.629 30.552-30.475 30.641h-0.009c-16.855-0.089-30.484-13.773-30.484-30.641 0-0.042 0-0.083 0-0.125v0.006zM281.639 115.082c0 0.047 0 0.103 0 0.158 0 57.307 46.345 103.79 103.6 104.014h0.021c57.276-0.224 103.621-46.707 103.621-104.014 0-0.056 0-0.111 0-0.167v0.009c0-0.070 0-0.154 0-0.237 0-57.321-46.367-103.813-103.641-104.014h-0.019c-57.259 0.246-103.582 46.72-103.582 104.014 0 0.083 0 0.167 0 0.25v-0.013zM354.777 115.082c0-0.024 0-0.051 0-0.079 0-16.867 13.629-30.551 30.475-30.641h0.008c16.855 0.089 30.484 13.773 30.484 30.641 0 0.028 0 0.056 0 0.084v-0.004c0 0.035 0 0.077 0 0.119 0 16.867-13.629 30.552-30.475 30.641h-0.009c-16.872-0.067-30.523-13.76-30.523-30.641 0-0.042 0-0.083 0-0.125v0.006zM307.2 235.717c-17.257 0.052-31.687 12.094-35.399 28.23l-0.047 0.245-96.374 420.116-129.969 139.067c-6.135 6.566-9.902 15.413-9.902 25.14 0 10.514 4.401 19.999 11.462 26.715l0.016 0.015c6.485 6.146 15.266 9.925 24.93 9.925 0.028 0 0.056 0 0.083 0h-0.004c10.439-0.066 19.829-4.498 26.448-11.559l0.019-0.020 126.267-135.010h648.428c0.024 0 0.051 0 0.079 0 11.744 0 22.183-5.587 28.804-14.249l0.064-0.087 7.877-10.437-2.166-0.827c1.102-3.346 1.737-7.196 1.737-11.195 0-3.3-0.433-6.499-1.244-9.543l0.059 0.258-85.228-327.207c-4.161-15.967-18.448-27.563-35.445-27.569h-457.886l6.538-28.554h454.971c20.2-0.067 36.549-16.458 36.549-36.667 0-0.014 0-0.028 0-0.042v0.002c0-0.012 0-0.026 0-0.040 0-20.209-16.349-36.6-36.543-36.667h-0.006zM312.95 411.175h446.779l66.245 253.952h-571.077z" />
<glyph unicode="&#xe921;" glyph-name="requisition-list" d="M748.308 93.538v78.769h-78.769c-21.752 0-39.385 17.633-39.385 39.385s17.633 39.385 39.385 39.385v0h78.769v78.769c0 21.752 17.633 39.385 39.385 39.385s39.385-17.633 39.385-39.385v0-78.769h78.769c21.752 0 39.385-17.633 39.385-39.385s-17.633-39.385-39.385-39.385v0h-78.769v-78.769c0-21.752-17.633-39.385-39.385-39.385s-39.385 17.633-39.385 39.385v0zM118.154 172.308c-21.752 0-39.385 17.633-39.385 39.385s17.633 39.385 39.385 39.385v0h393.846c21.752 0 39.385-17.633 39.385-39.385s-17.633-39.385-39.385-39.385v0zM118.154 448c-21.752 0-39.385 17.633-39.385 39.385s17.633 39.385 39.385 39.385v0h590.769c21.752 0 39.385-17.633 39.385-39.385s-17.633-39.385-39.385-39.385v0zM118.154 723.692c-21.752 0-39.385 17.633-39.385 39.385s17.633 39.385 39.385 39.385v0h590.769c21.752 0 39.385-17.633 39.385-39.385s-17.633-39.385-39.385-39.385v0z" />
<glyph unicode="&#xe922;" glyph-name="cross-icon" d="M810.667 686.293l-60.373 60.373-238.293-238.293-238.293 238.293-60.373-60.373 238.293-238.293-238.293-238.293 60.373-60.373 238.293 238.293 238.293-238.293 60.373 60.373-238.293 238.293z" />
</font>
</defs>
</svg>
